<?xml version="1.0" encoding="UTF-8" standalone="no"?>
<!-- Generator: Adobe Illustrator 13.0.2, SVG Export Plug-In . SVG Version: 6.00 Build 14948)  -->
<svg xmlns:inkscape="http://www.inkscape.org/namespaces/inkscape" xmlns:rdf="http://www.w3.org/1999/02/22-rdf-syntax-ns#" xmlns="http://www.w3.org/2000/svg" xmlns:cc="http://creativecommons.org/ns#" xmlns:dc="http://purl.org/dc/elements/1.1/" xmlns:sodipodi="http://sodipodi.sourceforge.net/DTD/sodipodi-0.dtd" xmlns:svg="http://www.w3.org/2000/svg" xmlns:ns1="http://sozi.baierouge.fr" xmlns:xlink="http://www.w3.org/1999/xlink" id="Layer_1" style="enable-background:new 0 0 170.527 278.892" sodipodi:docname="johnny_automatic_hare_with_pencil.svg" xml:space="preserve" viewBox="0 0 170.527 278.892" version="1.1" y="0px" x="0px" inkscape:version="0.48.2 r9819"><sodipodi:namedview id="namedview3725" bordercolor="#666666" inkscape:pageshadow="2" guidetolerance="10" pagecolor="#ffffff" gridtolerance="10" inkscape:window-maximized="1" inkscape:zoom="2.1800554" objecttolerance="10" borderopacity="1" inkscape:current-layer="Layer_1" inkscape:cx="113.7367" inkscape:cy="118.20568" inkscape:window-y="33" inkscape:window-x="0" inkscape:window-width="1440" showgrid="false" inkscape:pageopacity="0" inkscape:window-height="812"/>
<path id="path3611" style="clip-rule:evenodd;fill-rule:evenodd" d="m103.09 60.971c-0.866 0.957-2.391 0.375-3.6 0.48-1.046 0.091-2.067 0.449-2.88 0.48-14.63 0.563-21.136-10.528-30.48-15.84-1.058-1.582-2.623-2.656-4.319-3.6-0.39-0.891-1.253-1.307-1.681-2.16-2.214-1.67-4.451-3.383-6.479-5.28-1.52-1.421-2.952-2.818-4.561-4.32-1.395-1.304-2.632-3.128-4.08-4.8-0.487-0.563-1.011-1.1-1.439-1.68-0.414-0.56-0.555-1.37-0.96-1.92-0.839-1.137-2.086-1.986-2.88-3.12-0.851-1.215-1.555-2.213-2.4-3.36-3.345-4.536-6.34-9.32-10.08-13.44-2.646 5.764-1.822 15.97 0.24 21.84 0.918 2.611 2.507 5.422 4.08 7.92 1.602 2.545 3.176 5.079 5.04 6.72 1.384 1.219 3.032 1.792 3.84 3.36 0.892 0.345 1.821 0.795 2.64 1.44 0.821 0.647 2.517 1.767 3.12 3.12-1.793 0.113-2.781-0.578-4.319-0.72-4.771-3.255-9.639-8.343-12.721-14.4-0.778-1.53-1.396-2.669-2.16-4.56-0.631-1.562-1.087-3.675-1.68-6-0.381-1.496-1.037-2.98-1.2-4.32-0.622-5.128 0.206-13.216 2.16-16.8 2.888-0.237 4.86 3.387 6.48 5.76 2.664 3.902 4.895 6.414 7.439 10.08 1.021 1.47 2.098 2.517 3.12 4.08 1.105 1.688 3.205 3.727 4.32 5.76 2.287 2.513 5.104 4.497 6.96 7.44 3.068 1.307 4.899 4.287 7.439 6.24 1.222 0.938 2.718 2.211 4.08 3.36 2.509 2.116 5.514 4.393 8.16 6.72 1.017 0.894 2.251 1.76 3.36 2.64 1.07 0.85 2.036 1.964 3.12 2.64 2.136 1.334 4.856 1.661 6.72 3.6 4.035 1.218 8.02 1.983 13.44 2.16 0.56 0.019 1.9-0.419 2.16 0.48z"/>
<path id="path3613" style="clip-rule:evenodd;fill-rule:evenodd" d="m28.927 16.331h0.479c2.24 1.36 3.026 4.174 5.28 5.52 0.241 0.722-0.535 0.425-0.96 0.48 0.709 1.931 3.695 1.584 4.319 3.6-1.771 0.171-2.731-0.468-3.84-0.96-0.823 2.346 1.058 4.061 3.12 4.32 0.324-0.654-0.692-2.021-1.68-2.16 0.866-2.057 2.56-0.036 3.359 0.72 1.931 1.825 4.036 4.07 6 5.76 2.653 1.416 4.541 3.888 6.961 5.76 1.428 1.105 3.246 2.334 4.319 4.08 3.228 1.812 6.231 3.849 8.641 6.48 2.747 1.172 4.584 3.255 6.72 5.04 0.076 0.964 0.168 1.912 0.72 2.4 0.531-0.242-0.591-0.826-0.24-1.68 1.936 0.705 3.31 1.971 4.801 3.12 0.299 1.019-0.799 0.642-0.96 1.2 0.723 0.862 1.137-0.607 2.159-0.24-0.13 2.03-2.733 1.587-4.319 2.16-0.388-1.213-1.983-1.217-2.4-2.4-1.172 1.053-4.26 1.699-6 0.72-0.198-0.678 0.338-0.622 0.24-1.2-3.376 0.336-5.513-0.567-6.48-2.64 0.066-1.134 1.629-0.771 2.4-1.2-2.026-0.698-5.18 0.557-7.92 0-0.984-0.2-1.793-0.654-2.641-0.96v-1.2c2.73-0.626 5.133 1.089 8.4 0.72-0.01-1.11-1.822-0.418-2.16-1.2-0.21-0.771 0.623-0.498 0.721-0.96-0.301-1.22-1.618-1.422-2.881-1.68 0.015 1.186 1.288 1.113 0.96 2.64-1.163-0.197-1.437-1.284-2.159-1.92-0.444 0.036-0.147 0.813-0.48 0.96-0.341-0.021-0.68-0.04-0.72 0.24-1.979 0.045-3.938-0.073-5.521-0.72-0.186-0.076-0.308-0.646-0.479-0.72-0.936-0.405-2.475-0.325-2.641-1.44 2.82-1.988 6.184 2.242 9.36 1.44-0.02-1.741-2.817-0.703-2.88-2.4h1.44c-0.303-0.818-0.705-1.535-1.681-1.68-0.869-0.23-0.244 1.036-0.72 1.2-1.964-0.516-0.592-4.368-2.4-5.04-0.894-0.254-0.774 0.505-1.199 0.72-1.118 0.091-0.35-0.88-1.2-1.2-0.422-0.159-0.967 0.206-1.44 0-0.061-0.027 0.061-0.45 0-0.48-0.449-0.222-1.773 0.068-1.68-0.72 0.675-1.286 2.532 0.108 3.359 0.24-0.293-2.907-4.573-1.827-6-3.6 1.379-0.653 3.298 0.218 4.561 0.48 0.067-1.027-0.733-1.187-0.48-2.4-1.904-0.099-3.117-1.497-4.8-0.48-0.137-1.624-2.513-1.007-2.88-2.4 1.157-0.634 0.965 0.117 2.64 0 0.33-2.6-2.437-3.183-4.079-2.4-1.222-2.138-0.622-6.098-2.16-7.92-0.067-0.547 0.058-0.902 0.479-0.96-1.029-1.769-2.897-2.702-3.358-5.04zm10.32 16.8c1.221 0.22 2.039 0.841 3.36 0.96-1.021-1.218-2.036-2.443-3.36-3.36v2.4zm6 5.28c0.557-0.077 0.922 0.039 1.2 0.24-0.464-1.056-0.543-2.497-1.68-2.88-0.191 1.231 0.505 1.575 0.48 2.64zm0.96 2.88h1.2c-0.02-0.781-0.307-1.293-0.96-1.44h-0.479c-0.176 0.734 0.413 0.706 0.239 1.44zm3.6 0.24c0.156-1.117-0.084-1.836-1.2-1.68-0.097 1.057-0.065 1.984 1.2 1.68zm0.72 3.36c-0.171-0.789-0.114-1.806-0.96-1.92 0.029 0.931-0.291 2.211 0.96 1.92zm1.68 0.48c0.481 0.098 1.78 0.594 2.16 0-0.513-0.928-0.595-2.286-2.399-1.92-0.185 0.904 0.291 1.147 0.239 1.92zm3.839 3.12c-0.223-1.297-1.671-1.368-2.88-1.68 0.171 1.349 1.187 1.854 2.88 1.68zm3.121 0.72c-0.074-0.894-1.061-2.126-1.68-1.68 0.762 0.358 0.167 2.073 1.68 1.68zm6.48 3.36c-0.963-0.798-2.004-1.516-3.12-2.16 0.673 0.931 1.524 2.95 3.12 2.16zm-6.24-0.72c0.698-0.042 1.695 0.843 2.16 0.24-0.628-0.652-1.043-1.517-2.4-1.44-0.199 0.679 0.338 0.622 0.24 1.2zm4.32 3.36c-0.235-1.045-1.186-1.375-2.4-1.44 0.184 1.096 1.409 1.151 2.4 1.44zm3.359-0.48c-0.702 0.062-0.737-0.542-1.439-0.48-0.314 1.018 1.337 1.296 1.439 0.48zm2.641 0.24c-0.447 0.229-0.803-0.719-0.96 0 0.148 0.07 0.924 0.597 0.96 0zm-7.92 1.68c0.027 0.293 0.071 0.568 0.479 0.48 0.852-0.749 3.606 0.406 4.08-0.72-1.472 0.127-3.474-0.274-4.559 0.24zm6.72 0.24c-0.167-0.188-1.339-0.534-1.44 0 0.166 0.188 1.339 0.534 1.44 0zm-0.481 1.68c0.847 0.208 1.268-0.586 0.48-0.72-0.057 0.342-0.395 0.405-0.48 0.72zm6.96 0.24c-0.318 0.035-0.893-0.807-0.96-0.24 0.321-0.036 0.725 0.976 0.96 0.24z"/>
<path id="path3615" style="clip-rule:evenodd;fill-rule:evenodd" d="m114.13 101.05c-0.181-1.141 0.605-1.315 0.96-1.92 0.779-1.781 1.099-4.021 2.641-5.04-0.084 1.997-0.813 3.347-1.68 4.56 0.459 2.087-1.08 3.612-1.2 5.28-0.103 1.425 1.111 2.9 0 4.32-0.906-0.294-0.71-1.69-0.721-2.88-2.254 1.266-0.872 6.168-1.92 8.64-1.646-0.652-2.283 0.831-3.12 1.68-0.107 1.972-0.069 4.09-1.68 4.56-0.512-0.875 0.358-2.112 0.48-3.12-1.923-0.639-0.956 3.682-3.12 3.6-0.032-0.591-0.036-1.156 0.239-1.44-0.938-0.039-2.017 2.53-4.079 1.44-0.259-1.298 0.65-1.429 0.479-2.64-0.826-0.417-1.621 1.253-2.88 1.2-0.899 1.26-0.763 3.557-2.88 3.6-0.576-0.81 0.696-1.432 0.96-2.16-0.425-0.635-0.973 0.353-1.2-0.48 0.129-0.751 0.896-0.865 1.68-0.96 0.353-1.248 0.519-2.682 1.2-3.6 1.27 0.217 0.232 1.248 0.48 2.4 4.341-0.981 2.74-7.244 3.12-11.28 1.156 0.283 1.024 1.855 1.199 3.12 1.997-0.162 1.657-3.576 1.2-6-1.017 0.506-2.44 2.677-4.08 3.36-0.544-1.593 1.7-2.208 2.641-3.36 0.435-0.534 0.237-1.179 0.96-1.44 0.053-0.773-0.425-1.016-0.24-1.92 0.646-0.166 0.464 0.496 0.72 0.72 1.91-1.824-0.702-3.448-0.479-5.76 0.631-0.071 0.188 0.931 0.96 0.72 0.396-0.963 0.748-1.971 1.2-2.88-0.282-1.158-0.981-1.899-1.44-2.88-1.161 1.798-0.956 4.964-2.88 6-0.528-1.41 2.519-5.149 2.16-7.44-0.201-1.285-1.182-1.148-1.681-2.4 0.614-0.543 1.693-0.097 2.16 0.24 0.735-1.224-0.102-2.932-0.72-3.6-0.623 0.257-0.337 1.423-0.96 1.68-1.04-0.304-0.056-1.256 0-1.92 0.238-2.854 0.005-7.166-0.72-9.36-0.285-0.835-2.195-0.044-1.92-1.44-0.088-1.018 1.039-0.21 1.439-0.24-0.238-0.881-0.884-1.356-0.96-2.4-1.119-0.255-1.893 0.627-2.64 0-0.082-1.042 0.66-1.259 1.439-1.44-0.016-0.704-0.549-0.891-0.96-1.2-1.576 0.424-2.514 1.486-4.56 1.44 0.067-0.388-0.227-0.414-0.24-0.72 0.473-1.527 3.243-0.756 3.36-2.64-0.514-1.167-3.031-0.33-4.08-0.96 0.452-1.945 2.869-0.723 4.319-0.479 0.504 0.537 1.063 1.017 1.681 1.44 0.592 0.031 1.156 0.036 1.439-0.24 0.38-0.42 0.321-1.279 0.48-1.92 2.596-1.404 6.223-1.777 10.319-1.68 0.391 0.811 1.328 1.072 1.2 2.4-2.571 1.282-5.527-0.534-8.64-0.24 1.719 1.161 2.752 3.008 2.4 6.24 0.769 0.511 1.492 1.068 2.399 1.44 0.81-1.139-0.402-2.31-0.479-3.36 1.742-0.018 1.856 2.724 1.439 4.08 1.081 1.322 1.902 1.887 2.88 3.36 0.13 0.196 0.688 0.883 0.721 0.96 0.822 1.99 0.271 4.544 0.72 6.96 0.199 1.072 1.22 1.967 0.96 3.12-0.766 0.206-0.742-0.377-1.2-0.48-0.633 0.901-0.67 2.963 0 3.84 1.809-2.096 2.15-6.168 2.88-8.64 1.844 1.82-0.601 5.198-0.96 6.96-0.073 0.75 0.693-0.61 0.721 0.24 1.086 5.889-4.611 8.695-2.16 14.64 0.38-0.54 2.09-2.38 0.24-1.68zm-12-36.719c-1.91 0.127 1.17-0.078 0 0zm-1.44 1.68c0.073 0.727 0.742 0.857 0.479 1.92 2.034-0.354 2.903 0.457 4.08 0.96-0.179-1.981-0.629-3.691-2.16-4.32 0 1.284-1.71 0.857-2.4 1.44zm4.08 7.44c0.001-1.281-0.582-1.979-0.721-3.12-0.722-0.238-1.07-0.849-2.159-0.72 0.29 1.943 1.02 3.458 2.88 3.84zm1.2 0.96c0.889 0.396 1.792 2.04 2.64 1.68-0.352-0.208-0.761-0.359-0.72-0.96 0.327-2.087-0.622-2.898-2.16-3.12 0.25 0.632 0.28 1.473 0.24 2.4zm-0.72 4.08c-0.17-1.831-0.016-3.984-1.92-4.08 0.31 1.685 0.11 3.883 1.92 4.08zm7.2 2.64c-0.06-2.98-1.025-5.054-2.64-6.48-0.54 3.574 1.34 4.741 2.64 6.48zm-3.84 0.24c0.47-2.79-0.806-3.835-2.16-4.8-0.35 2.67 0.43 4.204 2.16 4.8zm-3.6 1.68c0.429-2.028-0.062-3.106-1.199-4.08-0.52 1.78-0.22 3.576 1.2 4.08zm6.96 3.36c0.712-2.909-0.382-4.919-2.16-6-0.81 2.896 0.88 4.488 2.16 6zm-4.08 0c-0.02-2.061 0.391-4.551-1.681-4.56-0.64 2.256 0.19 3.784 1.68 4.56zm2.88 4.8c0.905-2.465 0.138-4.539-1.44-5.76-1.16 2.123-0.4 4.781 1.44 5.76zm-3.84-0.72c0.802-1.742-0.32-3.477-1.44-4.08-0.71 1.98-0.29 3.427 1.44 4.08zm7.92 1.2c0.176-0.872 0.845-2.503 0.239-3.36-0.22 1.151-1.75 2.552-0.24 3.36zm-2.16 5.04c0.334-1.345 1.256-2.104 1.439-3.6-0.736-0.863-0.985-2.214-1.92-2.88-1.12 1.956-0.66 4.898 0.48 6.48zm-3.6-1.92c1.465-1.226 0.039-3.445-0.96-4.32-0.88 1.333-0.03 3.451 0.96 4.32zm-3.84 2.64c0.562 0.798 0.817 1.902 1.681 2.4 1.266-1.428 1.644-4.665-0.48-5.52-0.22 1.225-0.86 2.019-1.2 3.12zm5.28 2.4c2.239-0.728 0.421-3.106 0.24-4.8h-0.721c-0.84 1.663-0.15 3.337 0.48 4.8zm-2.16 3.599c1.368-0.712 1.617-3.803 0-4.56-0.64 1.63-1.39 3.19 0 4.56zm3.84 2.88c0.241-0.319 0.228-0.893 0.721-0.96-0.2-1.769-0.002-4.807-0.96-5.28-1.27 1.65-0.37 4.42 0.24 6.24zm-7.2-3.12c0.713 0.031 1.549-1.963 0.48-2.16-0.08 0.8-0.7 1.07-0.48 2.16zm0.96 3.12c1.6-0.124 1.368-2.637 0.479-3.36-0.8 0.85-1.23 2.15-0.48 3.36zm3.6 4.08c0.472-0.649 0.783-1.457 1.439-1.92-0.171-1.989-0.17-4.15-1.199-5.28-1.84 1.45-0.9 4.96-0.24 7.2zm-2.64 3.36c0.362-0.554 1.026-1.083 1.199-2.16 0.13-0.807-0.393-4.998-0.96-4.8-1.68 1.25-0.49 4.82-0.24 6.96zm-3.84-1.68c-0.07 0.238 0.255 0.968 0.24 1.2-0.144 2.234-0.941 5.036-0.96 6.72 0.923-0.917 2.254-1.426 2.88-2.64-0.262-0.849-1.178 0.849-1.439 0-0.442-0.927 1.093-1.135 1.439-2.4 0.436-1.588-0.125-3.728-0.24-5.28-0.45 0.79-1.57 1.2-1.92 2.4zm6.24 1.44c1.122-0.079 1.039-1.362 2.16-1.44-0.148-0.651 0.305-1.904-0.24-2.16-0.75 1.09-1.8 1.89-1.92 3.6zm-2.64 2.64c0.403-0.408 1.784-1.08 0.96-1.92-0.3 0.52-1.38 1.48-0.96 1.92z"/>
<path id="path3617" style="clip-rule:evenodd;fill-rule:evenodd" d="m91.086 84.251c-1.656-5.498-2.299-12.802-8.399-12.96-2.804-0.072-4.189 1.88-7.2 1.2-0.505-0.936-0.12-2.76-0.24-4.08 0.533-0.556 0.937 0.082 1.681 0 2.39-1.615 5.456-3.546 9.359-2.88 1.101 1.219 2.015 2.625 3.36 3.6 0.926 2.079 1.975 6.041 2.64 9.6 0.467 2.504 1.181 4.609-1.201 5.52z"/>
<path id="path3619" style="clip-rule:evenodd;fill-rule:evenodd" d="m118.21 69.131c-2.366 0.935-5.046-1.008-7.68-1.68-1.458-0.372-2.885-0.127-4.08-0.96 0.701-1.33 2.809-0.97 4.32-0.96 2.099 0.013 4.325 0.256 5.76 0.48 0.35 1.251 1.72 1.481 1.68 3.12z"/>
<path id="path3621" style="clip-rule:evenodd;fill-rule:evenodd" d="m122.05 75.131c-0.66 0.608-1.323 0.841-2.4 0.48-1.616-2.303-4.47-3.371-7.2-4.56 2.023-2.22 5.355 0.524 7.68 0.96 0.6 1.078 1.65 1.707 1.92 3.12z"/>
<path id="path3623" style="clip-rule:evenodd;fill-rule:evenodd" d="m13.327 71.291c1.313 0.366 3.306 0.054 3.84 1.2 2.49 0.17 4.477-0.164 6.48-0.48-0.643 2.494-5.198 1.878-6.96 1.92-0.729-0.871-2.064-1.136-3.36-1.44v-1.2z"/>
<path id="path3625" style="clip-rule:evenodd;fill-rule:evenodd" d="m116.29 75.851c4.379 0.421 7.104 2.497 8.16 6.24-1.186 0.856-1.902-0.906-2.88-1.44-0.684-0.373-1.705-0.315-2.4-0.72-1.257-0.731-1.954-2.251-2.88-3.12v-0.96z"/>
<path id="path3627" style="clip-rule:evenodd;fill-rule:evenodd" d="m85.327 90.011c0.188 0.531 1.486-0.046 1.2 0.96-1.189 1.428-2.948 1.345-4.32 2.16-0.463 0.275-0.987 0.814-1.439 1.2-0.485 0.414-1.077 0.797-1.44 1.2-1.016 1.126-1.324 3.315-3.12 3.84-3.215-2.674 1.859-5.602 3.601-6.72-2.689-1.231-5.627-2.213-5.28-6.48 1.802-0.118 2.966-0.875 4.56-1.2-1.271-1.049-2.457-2.183-3.84-3.12-0.017-2.417 2.856-1.944 3.84-3.36 7.49-1.816 10.049 7.684 6.238 11.52z"/>
<path id="path3629" style="clip-rule:evenodd;fill-rule:evenodd" d="m119.41 82.091h0.48c3.215 1.186 6.632 3.447 6 7.68-1.285-0.155-1.365-1.515-1.92-2.4-1.85-1.429-4.2-2.359-4.56-5.28z"/>
<path id="path3631" style="clip-rule:evenodd;fill-rule:evenodd" d="m64.207 84.491h0.721c-0.234 2.898-2.465 4.664-1.2 7.68-3.548-1.359-0.217-5.557 0.479-7.68z"/>
<path id="path3633" style="clip-rule:evenodd;fill-rule:evenodd" d="m90.607 86.411c-0.025 1.575-1.391 1.81-1.92 2.88-1.736-0.745 0.258-4.044 1.92-2.88z"/>
<path id="path3635" sodipodi:nodetypes="cccccc" style="fill-rule:evenodd" inkscape:connector-curvature="0" d="m125.41 96.731c-1.93 0.33-2.235-0.964-2.4-2.4-0.943-2.577-2.43-4.61-3.6-6.96-0.039-0.279 0.053-0.427 0.24-0.48 0.943-0.444 1.456 1.351 2.4 1.68 1.763 3.3871 4.9725 4.7619 3.36 8.16z"/>
<path id="path3637" style="clip-rule:evenodd;fill-rule:evenodd" d="m101.41 89.291h0.72c0.641 3.791-2.035 5.538-4.08 7.68-0.93 0.975-1.733 2.482-3.119 2.4-0.175-1.171 1.084-1.464 1.68-2.16 1.413-1.65 2.809-3.439 4.32-5.28-0.19-1.232 0.25-1.823 0.48-2.64z"/>
<path id="path3639" style="fill-rule:evenodd" inkscape:connector-curvature="0" d="m116.17 106.46h0.72c1.79 1.942 3.426 7.153 1.68 10.32-1.769-0.481-1.066-2.867-1.2-4.56-0.174-2.205-0.804-4.229-1.2-5.76z"/>
<path id="path3641" style="clip-rule:evenodd;fill-rule:evenodd" d="m95.407 102.73c0.275 1.887-2.551 3.552-4.08 3.6-0.037-1.437 2.758-2.013 3.36-3.6h0.72z"/>
<path id="path3643" style="clip-rule:evenodd;fill-rule:evenodd" d="m46.687 110.17c0.388-0.067 0.413 0.227 0.72 0.24-0.981 2.052-0.401 4.33-0.24 6-2.542-0.46-1.787-4.99-0.48-6.24z"/>
<path id="path3645" style="clip-rule:evenodd;fill-rule:evenodd" d="m48.367 110.65c1.52 0.881 0.301 4.499 0.96 6.24-2.535 0.19-1.941-5.12-0.96-6.24z"/>
<path id="path3647" style="clip-rule:evenodd;fill-rule:evenodd" d="m56.287 111.61c-0.045 0.995-0.469 1.612-1.439 1.68-1.4 1.761-1.233 4.18-1.44 6.72-0.9 1.17-3.084 1.634-4.08 0.24-0.296-1.289 1.135-1.466 1.68-2.4 0.602-1.028 0.47-2.386 0.961-3.36 0.795-1.58 2.433-3.19 4.318-2.88z"/>
<path id="path3649" style="clip-rule:evenodd;fill-rule:evenodd" d="m73.086 114.01c1.562 1.22 0.801 2.031 0.24 4.8-0.605 2.989-0.964 5.537-2.64 7.44-2.521 2.864-6.563 3.44-10.32 2.16-0.827-1.228 0.229-1.762 0.96-2.4 0.369-0.322 0.935-0.158 1.44-0.48 1.378-0.878 3.372-3.11 5.279-3.6 1.896-2.43 3.716-4.92 5.041-7.92zm-2.879 8.88c-0.021-0.524 0.657-1.552 0.24-1.68-0.102 0.6-1.311 1.32-0.24 1.68zm-4.8 3.36c1.417 1.071 3.326-0.804 3.6-2.4-1.695-0.52-3.012 1.05-3.6 2.4zm-2.16 1.2c0.547 0.067 0.902-0.058 0.96-0.48-0.611-0.12-0.931-0.41-0.96 0.48z"/>
<path id="path3651" style="clip-rule:evenodd;fill-rule:evenodd" d="m115.09 114.01h0.721c1.535 3.406 0.003 9.034-2.88 10.32-0.65-1.013 0.58-1.891 0.96-2.64 0.302-2.337 0.967-4.312 0.96-6.96-0.07-0.39 0.22-0.41 0.24-0.72z"/>
<path id="path3653" style="clip-rule:evenodd;fill-rule:evenodd" d="m112.69 120.01c0.343 0.914-0.315 2.023-0.72 3.12-0.492 1.334-2.105 4.646-4.08 4.08 1.237-2.442 2.589-4.771 3.84-7.2h0.96z"/>
<path id="path3655" style="clip-rule:evenodd;fill-rule:evenodd" d="m46.927 121.93c0.278-0.039 0.427 0.053 0.479 0.24 1.065 0.764 0.118 2.131 0 3.12-0.384 3.227 1.704 7.233 4.561 7.44 1.475 0.107 1.455-0.849 3.119-0.72 0.06 1.849-2.525 3.051-5.279 2.879-2.512-1.202-4.111-4.156-4.08-7.68 0.017-1.92 0.793-3.64 1.2-5.28z"/>
<path id="path3657" style="clip-rule:evenodd;fill-rule:evenodd" d="m101.89 122.89c0.287 1.068-1.177 1.619-1.92 1.92-1.491 0.604-4.058 0.94-5.521 0.72 1.247-1.619 4.94-1.192 6.48-2.64h0.96z"/>
<path id="path3659" style="clip-rule:evenodd;fill-rule:evenodd" d="m107.41 123.13c0.055 1.431-1.402 2.167-2.16 2.88-0.731 0.688-1.432 2.12-3.12 1.68 0.917-2.124 3.224-2.856 4.32-4.8 0.5-0.1 0.63 0.17 0.96 0.24z"/>
<path id="path3661" style="clip-rule:evenodd;fill-rule:evenodd" d="m48.847 123.61h1.439c0.212 3.229 1.757 5.124 2.4 7.92-3.861-0.06-3.897-3.94-3.839-7.92z"/>
<path id="path3663" style="clip-rule:evenodd;fill-rule:evenodd" d="m100.93 128.65c-2.796-0.099-7.146-0.517-9.841 0.72-2.588 2.378-5.303 5.888-10.319 5.04-0.021-0.38 0.115-0.916-0.24-0.96 0.499-1.526 2.787-1.83 4.32-2.64 1.905-1.008 4.977-2.969 7.68-3.36 1.448-0.209 3.649-0.012 5.28 0 1.254 0.01 3.19-0.64 3.12 1.2z"/>
<path id="path3665" style="clip-rule:evenodd;fill-rule:evenodd" d="m109.33 131.05c1.868 0.932 2.417 3.183 4.08 4.32-0.009 2.312-0.632 4.008-2.16 4.8-0.038-0.281-0.438-0.202-0.72-0.24-0.772-1.183-0.005-2.198 0.479-3.359-0.71-1.56-2.4-3.33-1.68-5.52z"/>
<path id="path3667" style="clip-rule:evenodd;fill-rule:evenodd" d="m105.97 143.77c-1.837 0.202-2.624-2.633-3.841-3.841-1.059-0.061-1.348-0.892-2.159-1.199-1.646 0.063-4.37 1.466-6.48 0.96 0.43-1.054 1.769-0.78 2.88-1.2 2-0.756 3.765-2.259 6.48-0.96 0.623 0.298 3.128 2.689 3.359 3.6 0.19 0.75 0.07 1.74-0.24 2.64z"/>
<path id="path3669" style="clip-rule:evenodd;fill-rule:evenodd" d="m111.01 142.09c-0.07 1.289-1.225 1.495-2.159 1.92 0.13-1.22 0.94-1.78 2.16-1.92z"/>
<path id="path3671" style="clip-rule:evenodd;fill-rule:evenodd" d="m111.49 143.29c1.25 0.657-0.732 3.143-1.68 2.4 0.11-1.25 1.48-1.24 1.68-2.4z"/>
<path id="path3673" style="clip-rule:evenodd;fill-rule:evenodd" d="m102.37 153.85c-2.142 0.739-2.616 3.144-5.28 3.36 1.174-2.586 4.1-3.662 5.761-5.76 0.529-0.67 0.567-1.548 1.199-2.16-1.55-0.027-2.049 3.069-4.56 2.88 0.183-1.194 1.383-1.988 2.16-2.64 0.883-0.74 1.86-1.316 2.64-2.16 0.021-0.938 0.294-1.626 1.44-1.44 0.08 1.281-0.965 1.436-1.2 2.4-0.099 0.578 0.438 0.521 0.24 1.2 1.046-0.554 0.84-2.359 2.64-2.16-0.642 2.238-2.864 2.896-3.36 5.28 0.769-0.512 0.809-1.752 1.921-1.92-0.239 2.757-2.774 3.952-4.32 5.52-1.338 1.355-2.303 3.523-4.561 3.84 0.435-2.36 4.331-3.49 5.281-6.24z"/>
<path id="path3675" style="clip-rule:evenodd;fill-rule:evenodd" d="m78.126 157.21c0.318 1.283-1.104 2.893-2.64 3.12 0.182-1.74 1.749-2.09 2.64-3.12z"/>
<path id="path3677" style="clip-rule:evenodd;fill-rule:evenodd" d="m109.81 161.29c0.187-0.214 0.258-0.542 0.239-0.96 0.75-0.109 0.768 0.513 0.721 1.2-0.51 0.1-0.64-0.16-0.96-0.24z"/>
<path id="path3679" style="clip-rule:evenodd;fill-rule:evenodd" d="m100.69 166.33h0.72c-0.001 1.583-0.652 2.1-1.68 3.12-0.822 0.816-2.405 2.666-3.84 2.16 1.333-2.02 3.931-2.79 4.8-5.28z"/>
<path id="path3681" style="clip-rule:evenodd;fill-rule:evenodd" d="m83.167 176.17c-2.917-0.131-1.901-4.879-1.199-6.72 2.154 0.98 0.348 4.44 1.199 6.72z"/>
<path id="path3683" style="clip-rule:evenodd;fill-rule:evenodd" d="m100.45 169.93h0.96c0.053 0.773-0.425 1.016-0.24 1.92-1.78 0.699-2.337 2.624-4.08 3.36 1.361 2.796-0.438 5.738-0.72 8.4 0.404 0.715 1.547 0.692 2.64 0.72-0.097-0.463-0.93-0.189-0.72-0.96 2.292-0.429 2.436-3.005 4.08-4.08 0.171 1.804-1.67 3.586-2.16 5.521-0.73 0.469-1.731 0.668-2.399 1.199-2.252-1.188-3.822-3.058-5.761-4.56 0.59-1.194 1.617 0.375 2.4 0.479-0.142-3.059-1.771-4.628-3.12-6.479 2.304-1.135 2.544 1.74 3.84 2.399-0.061-1.621-2.137-3.301-3.359-4.56 0.046-0.754 0.445-1.154 1.199-1.2 1.111 0.81 2.429 1.412 3.36 2.4 1.631-1.24 3.312-2.44 4.08-4.56z"/>
<path id="path3685" style="clip-rule:evenodd;fill-rule:evenodd" d="m100.93 173.29h0.72c0.109 1.452-1.849 5.176-3.84 4.8 0.86-1.78 2.72-2.56 3.12-4.8z"/>
<path id="path3687" style="clip-rule:evenodd;fill-rule:evenodd" d="m81.247 187.21c0.891 0.17 1.03-0.41 1.92-0.24 0.119-1.348-2.907-2.814-2.16-4.8 3.004 0.438 1.519 5.362 5.521 4.8-1.16-1.56-2.807-2.634-3.36-4.8 2.634 0.246 2.831 2.93 4.08 4.561h2.641c-1.762-1.359-3.864-2.377-4.32-5.04 3.281 0.879 3.264 5.056 7.439 5.04-0.73-0.949-1.66-1.699-2.64-2.4 0.188-1.787-1.768-1.433-1.68-3.12 2.476 0.431 3.079 3.066 4.56 4.561 0.415 0.418 1.551 0.1 1.2 1.199 1.787 0.188 2.862-0.338 4.56-0.239 1.065 0.104 0.594-1.327 1.921-0.96 0.571 1.143-1.045 1.929-1.681 2.64-2.818 0.09-5.516-0.12-8.16 0-3.056 0.139-6.637-0.398-9.119 0.479-1.186 0.42-1.914 1.956-3.36 2.4-1.399 0.43-2.475 0.026-4.08 0.24-0.993-0.127-0.601-1.64-2.16-1.2-0.469-1.636-1.411-3.166-2.88-3.12-0.898-1.981-1.087-4.673-1.92-6.72 0.897-0.629 0.478-1.768 0.96-2.641 1.3-2.352 5.473-3.569 7.44-2.88 0.081 0.029 1.114 0.693 1.439 0.96 2.859 2.34 2.825 6.99 3.838 11.28zm-10.56-7.92c1.591 2.169 2.952 4.567 3.6 7.68 1.267 0.414 0.839 2.521 2.16 2.88 0.454 0.055 0.529-0.271 0.96-0.239 0.157-2.72-1.321-5.077-0.96-7.2 1.561 1.079 1.358 3.922 1.68 6.24 1.114-0.353 0.627-2.1 0.48-3.12-0.261-1.817-1.228-3.648-1.2-5.521-1.202 0.759-1.663 1.729-3.12 1.44-0.91-0.181-1.776-1.45-1.68-2.4 0.147-1.445 1.658-1.788 3.36-2.16-1.781-1.79-5.064 0.31-5.28 2.4zm4.319 0.72c0.352-0.208 0.761-0.359 0.721-0.96-0.014-0.307-0.308-0.332-0.24-0.72-1.62-0.4-1.815 1.6-0.481 1.68zm0.241 9.6c-0.529-0.19-0.312-1.128-0.96-1.2 0.079 0.5 0.413 1.96 0.96 1.2z"/>
<path id="path3689" style="clip-rule:evenodd;fill-rule:evenodd" d="m100.69 178.81c-0.361 1.238-0.744 2.455-2.4 2.399 0.338-1.26 1.252-1.94 2.4-2.4z"/>
<path id="path3691" style="clip-rule:evenodd;fill-rule:evenodd" d="m67.086 181.45c1.01 0.669 0.334 1.958 0.48 2.88 0.28 1.77 1.293 3.142 1.68 4.56-2.3-0.7-3.439-4.71-2.16-7.44z"/>
<path id="path3693" style="clip-rule:evenodd;fill-rule:evenodd" d="m74.527 182.41h0.72c1.115 1.685 0.721 4.879 1.44 6.96-1.781-1.26-1.392-4.69-2.16-6.96z"/>
<path id="path3695" style="clip-rule:evenodd;fill-rule:evenodd" d="m52.687 190.57c-0.615 1.941-0.749 3.104-0.24 5.279-3.53 0.31-2.197-5.38 0.24-5.28z"/>
<path id="path3697" style="clip-rule:evenodd;fill-rule:evenodd" d="m73.327 219.37c-1.177-0.027-1.439-1.514-2.399-2.16-1.904-1.281-5.04-2.031-7.681-1.2-1.219 0.917-1.266 2.975-0.96 4.801-1.211 0.171-1.752-0.328-2.64-0.48-0.505-0.67-0.34-4.285 0.72-5.04 2.455-1.749 5.776-1.266 8.4-0.24 1.958 0.77 4.9 1.76 4.56 4.32z"/>
<path id="path3699" style="clip-rule:evenodd;fill-rule:evenodd" d="m71.167 218.65c0.337 0.467 0.784 1.545 0.24 2.16-0.955-0.093-1.425-0.824-2.4-0.961-1.602-0.224-2.999 0.654-4.56 0.721-0.108-2.88 4.395-2.25 6.72-1.92z"/>
<path id="path3701" style="clip-rule:evenodd;fill-rule:evenodd" d="m74.287 227.29c-0.652 1.515-2.212 0.965-3.359 1.44-1.205 0.498-2.476 1.529-3.36 2.399-0.931 0.916-1.34 2.369-2.64 2.88-0.916-0.641 0.019-3.007 0.479-3.6 1.232-1.583 5.745-3.314 8.16-4.08 0.388-0.067 0.413 0.227 0.72 0.24v0.72z"/>
<path id="path3703" style="clip-rule:evenodd;fill-rule:evenodd" d="m46.687 246.49c-0.935 0.745-1.181 2.18-2.641 2.399 0.266-1.26 1.45-2.86 2.641-2.4z"/>
<path id="path3705" style="clip-rule:evenodd;fill-rule:evenodd" d="m51.727 251.29c0.166 1.606-1.006 1.874-1.681 2.64-0.452 1.002-1.255 1.775-2.64 1.2 0.158-2.46 1.695-4.62 4.321-3.84z"/>
<path id="path3707" style="clip-rule:evenodd;fill-rule:evenodd" d="m68.287 268.09c0.557-0.076 0.922 0.039 1.2 0.24-0.133 0.79-1.337 0.96-1.2-0.24z"/>
<path id="path3709" style="clip-rule:evenodd;fill-rule:evenodd" d="m56.527 275.53c0.388-0.067 0.413 0.227 0.72 0.24-0.137 0.663-0.254 1.346-1.2 1.199-0.115-0.75 0.341-0.94 0.48-1.44z"/>
<path id="path3711" style="clip-rule:evenodd;fill-rule:evenodd" d="m108.85 268.09c-0.188-0.48-1.476 1.217-2.16 0.24 0.977-1.106 2.572-1.793 3.84-2.64 1.216-0.813 3.037-1.516 3.12-3.36-1.299 0.656-1.715 3.357-3.601 2.64-0.182-0.901 0.629-0.812 0.96-1.199-1.708-0.688 0.154-2.049 0.48-2.881-1.718 0.39-1.221 1.537-2.4 2.4-3.011 2.206-9.454 0.219-10.319 4.56 1.584-0.281 2.69-1.962 4.319-1.439 0.08 1.717-1.936 1.629-2.64 2.64-0.576 0.827-0.622 1.682-0.72 3.12-2.075 0.509-2.607-3.108-1.2-3.84-0.166-0.321-0.641 0.118-1.2-0.24v-2.88c1.827-1.419 3.641-2.486 6-3.12 1.958-0.525 4.061 0.01 4.561-2.16 0.237-1.03 0.104-2.914 0-4.08-0.264-2.928-1.573-5.852-2.4-7.92-0.519 0.201-0.818 0.622-1.68 0.48-2.893-0.743-2.625-4.161-5.04-5.521-1.565-0.881-3.817-1.255-5.761-2.159-1.935-0.902-3.552-1.908-5.279-2.641-3.079-3.641-6.895-6.545-8.16-12-0.235 0.965-1.873 0.527-2.16 1.44 0.642 1.807 3.572 3.155 3.12 5.52-0.226 1.178-1.128 1.146-1.92 2.16 1.188 3.225-1.542 4.785-3.84 6-3.704 1.958-6.758 5.213-8.641 8.16-0.468 2.083-0.543 3.554-1.68 4.8-2.005 2.199-5.833 1.615-9.6 1.44-1.73-0.081-3.719 0.397-4.801-0.721 0.993-1.024 2.992-0.911 4.561-0.96 1.704-0.052 3.456 0.227 5.04 0 0.799-0.88 1.651-1.708 1.92-3.119-1.096-0.232-1.676 0.844-2.4 0.239 0.165-1.195 1.831-0.889 2.16-1.92-0.364-0.58-1.905 0.95-2.64 0-0.035-1.127 1.336-0.931 1.92-1.2 1.834-0.845 3.064-1.967 4.08-3.84-2.454 0.427-3.745 2.016-5.28 3.36-4.004 0.212-8.558-1.067-11.04 0.96 0.83 0.735 1.496-0.734 2.88-0.24 0.08 0.85 0.66 0.59 0.24 1.44-0.516 0.444-1.758 0.162-2.64 0.239-1.798 0.283-1.479 2.682-3.36 2.881-0.578-1.519 0.007-3.789 1.68-3.841 0.006-0.564-0.413-0.706-0.239-1.439 1.564-2.867 6.95-2.255 10.56-2.4 1.592-1.607 2.885-3.515 4.32-5.279-0.207-0.594-1.671 0.07-1.92-0.48-0.914-1.438-0.852-5.076 1.68-4.56-0.001 1.43-0.362 2.071 0.24 3.119 2.449-0.191 3.424-2.604 5.04-3.84 0.789-0.604 2.143-1.249 3.12-1.92 1.149-0.789 2.881-1.555 4.56-2.399h1.68c0.281-0.454-1.271-1.12-0.72-2.641 0.46-0.66 1.425-0.814 1.92-1.439-2.623-1.241-5.03 1.756-6.96 0.479 4.235-5.107 12.548-0.786 18.24-0.72 4.689 0.055 8.58-1.652 12-3.36-1.358-0.153-4.378 1.377-6.24 0.721 0.103-0.965 1.01-0.383 1.44-0.48 1.212-0.276 2.517-0.586 3.6-1.2 1.022-0.579 1.527-1.935 2.88-1.92 0.206 1.486-1.818 0.742-1.439 2.4 1.84-0.246 3.021-2.122 4.56-3.601 1.048-1.006 2.433-1.799 3.36-2.88 0.671-0.782 0.952-1.718 1.68-2.64 1.326-1.68 2.262-4.906 2.64-8.16-1.242 2.451-1.754 5.001-3.12 7.2-0.904 1.457-2.051 3.735-3.84 4.56 0.376-1.624 1.633-2.367 2.4-3.6-0.379-0.44-0.816 1.09-1.44 1.2-1.435-0.075-2.643 0.076-2.88 1.2 0.431 0.414 1.049-1.02 1.92-0.961 0.389 2.31-2.271 1.568-2.16 3.601-1.943 0.776-3.279 2.16-5.76 2.399-0.277-0.354-0.277-0.604 0-0.96-2.371 0.995-6.703 0.742-9.359 0.721 1.279 1.04 3.638 1.002 5.52 1.439-0.353 1.258-1.765 0.742-2.4 0.721-3.319-0.116-7.026-2.377-10.319-3.12-1.559-0.352-3.359 0.388-4.32-1.2 0.515-0.822 2.714-0.471 3.84-0.24 1.181 0.242 2.403 1.205 3.601 0.96-1.221-1.979-5.435-0.966-5.761-3.84 3.002-0.567 5.949 2.036 9.36 2.64 1.995 0.354 5.1 0.445 8.16 0.24 2.578-0.173 5.679-0.549 6.96-2.399-1.159-0.987-1.825 0.565-2.64 0.72 0.489-2.87 3.202-3.518 3.84-6.24-0.742-0.163-1.258 1.117-1.92 0.24 0.768-1.312 3.264-0.896 3.6-2.641-1.241-0.12-1.207 1.033-2.64 0.721 1.698-1.701 4.014-3.029 6.479-4.08 0.061-0.819 0.607-1.153 0.48-2.16 1.201 0.504 1.438-0.46 1.92-0.24 0.218 1.738-1.223 1.817-1.44 3.12 1.715-0.445 2.186-2.134 1.92-4.56-1.392 0.607-3.017 0.983-4.8 1.199-0.404 1.116-0.823 2.217-1.2 3.36-3.661 1.093-8.94 2.675-13.68 2.16-0.598-0.065-0.735-0.629-1.44-0.24-0.271-0.369-0.689-0.591-0.96-0.96-3.089 0.029-5.457-0.168-7.92-1.2-0.586-0.245-0.962-0.882-1.68-1.199-1.209-0.536-2.363-0.834-3.6-1.44-0.717-0.351-1.68-0.652-2.16-0.96-0.842-0.538-1.435-1.591-2.16-2.16-0.259-0.203-0.92 0.166-0.72-0.479-1.238-0.202-2.567-0.313-4.08-0.24-0.754 0.286-1.022 1.059-2.16 0.96-0.54-0.261-0.948-0.651-0.96-1.44-1.85 1.115-4.104 3.05-5.76 4.8-0.539 0.57-1.229 0.687-1.681 1.2-0.441 0.504-0.51 1.314-0.96 1.92-0.339 0.456-1.099 0.611-1.439 0.96-0.201 0.206-0.04 0.754-0.24 0.96-0.361 0.373-1.288 0.985-1.68 1.921-0.484 1.153-1.039 3.186-1.2 4.319-0.661 4.656 0.974 7.042 2.64 10.32 2.258 1.663 4.41 3.43 6 5.76-0.117 0.758 0.433 0.848 0.24 1.68 2.358-0.922 3.808-4.831 7.68-5.04-0.021 0.341-0.039 0.681 0.24 0.721-1.604 2.016-4.67 2.517-6 5.04 0.199 1.319-0.601 1.639-0.48 2.88-1.958 0.135-1.374-1.427-3.119-0.48-0.191-6.215-5.546-6.464-7.92-10.08-1.827-2.781-2.731-9.892-1.2-14.159 0.244-0.682 1.53-2.946 2.16-3.841 0.848-1.205 2.401-2.18 3.6-3.359 1.404-1.383 1.671-2.137 3.6-3.12 1.977-1.008 2.95-2.844 5.521-3.36-0.117-1.637 0.331-2.709 0.479-4.08h1.44c0.642 0.719 0.377 2.343 0.96 3.12 4.059-1.132 7.062 1.583 9.6 3.12 1.294 0.784 2.644 1.098 4.08 1.68 0.969 0.393 1.852 1.172 2.88 1.44 0.978 0.255 1.934-0.473 2.881 0.72 3.263 0.688 7.533 1.004 9.84-0.96 3.596-0.403 7.089-0.911 9.84-2.16 0.339-4.187-2.495-10.744 0-14.88 0.155-0.955-0.636-0.965-0.48-1.92 0.758-0.117 0.848 0.433 1.681 0.24-0.498-0.51-0.397-1.617-1.44-0.96-0.105-0.891 0.802-2.275-0.24-2.64-2.102 1.338-2.48 4.398-5.279 5.039 0.417-2.462 2.383-3.376 3.119-5.52 0.166-3.283-1.199-7.843 1.2-9.36-0.277-0.354-0.277-0.604 0-0.96-0.464-0.37-1.313 0.916-1.92 1.2-0.689-0.541-0.873-0.196-2.16-0.24 0.056-1.305 0.852-1.868 1.44-2.64-0.07-0.326-1.27 0.298-1.44-0.48 0.319-1.431 1.325-2.267 1.92-3.6 1.32-2.959 1.998-6.514 3.36-9.36-1.472 1.248-2.629 2.812-3.6 4.561-1.041 0.312-1.651 0.96-1.2 2.16 1.099-0.662 1.335-2.186 2.64-2.641-0.293 2.048-2.705 4-4.319 5.521 0.103 0.536 1.183 0.097 1.68 0.24-0.669 1.25-1.407 2.882-2.4 4.08-0.854 1.03-2.225 2.678-3.84 2.159 1.617-1.982 3.947-3.252 4.561-6.239-1.687 0.474-1.729 2.591-3.841 2.64 0.637-2.884 3.888-3.152 4.561-6-1.271 0.919-2.575 2.984-4.32 2.64 0.032-1.268 1.465-1.499 2.16-2.16 1.03-0.979 1.656-2.313 2.64-3.359 0.478-0.399 0.306 0.021 0.96 0 1.793-1.328 2.097-4.144 4.561-4.8-0.097-1.137 0.429-1.652 0.24-2.88 1.594-0.154 1.122 1.757 1.199 3.119 2.991 0.094 2.48-4.535 5.04-4.08-0.901 2.219-2.785 3.455-3.359 6 1.153-0.525 1.114-2.245 2.64-2.399-0.65 1.51-1.058 3.263-1.92 4.56-0.606 0.257-2.031 0.489-1.2 1.44 1.076-0.204 0.874-1.686 2.16-1.68-0.374 2.772-3.241 3.693-2.88 6.479-0.907 0.348-0.461-0.659-1.2-0.479-0.095 1.055 1.092 0.828 1.68 1.199 0.025 0.745-0.755 0.686-0.479 1.681 1.076-0.335 1.71-1.941 2.16-3.12 0.368-0.964 0.594-2.099 0.96-3.12 1.334-3.726 3.46-9.085 0.96-13.92-1.139 0.941-1.114 3.046-3.12 3.12 0.207-1.953 1.949-2.371 2.64-3.84-0.486-0.712-0.956-3.462 0-4.08 1.73 0.404 1.75 2.514 2.4 3.84 1.067 2.179 2.133 2.886 1.92 6.479-0.041 0.699-0.119 1.623-0.24 2.4-0.23 1.479-0.896 2.685-1.439 4.32-0.642 1.93-0.899 4.127-1.44 5.52-1.1 2.832-4.207 6.126-1.439 8.64 0.044 1.404-0.607 2.113-1.2 2.881 0.032 1.247 0.92 1.64 0.72 3.119-0.341-0.021-0.68-0.039-0.72 0.24-1.176-0.104-0.46-2.1-2.16-1.68-0.836 0.852 0.515 1.553 0.24 2.64-2.156-0.164-0.812-3.828-2.4-4.56-0.036 1.51 0.72 3.061 0.72 5.04 0.294 0.731 0.916-0.352 1.2 0.24-0.067 0.812-0.382 1.378-0.24 2.399 1.343 0.251 1.895-2.228 3.12-2.88 0.723-0.005 1.117 0.952 1.681 1.68 0.72 0.932 1.73 2.111 2.16 3.601 0.531 1.848 0.958 4.717 1.199 6.239 0.325 2.053 0.136 3.418-0.96 4.801-1.083 0.036-1.4 0.839-2.399 0.96 1.235 3.115 2.219 6.651 1.92 10.319-0.36 4.427-2.535 7.936-4.32 10.801-3.124 2.396-5.867 5.173-9.36 7.199 1.432 4.249 4.267 7.094 10.32 6.721 0.276 0.283 0.271 0.848 0.24 1.439 1.726 1.395 1.925 4.315 2.399 6.96 1.235-0.038 1.254 0.859 2.16 1.681 0.922 0.834 1.898 0.889 2.16 1.439 0.402 0.849 0.16 2.005 0.24 3.36-0.695 0.665-1.05 1.67-1.68 2.399 0.08 4.09 0.177 7.73 0.72 11.761 0.346 2.568 1.427 4.771 1.2 6.239-0.28 1.808-1.87 2.421-3.36 3.36 0.794 0.778 1.667-0.4 2.4-0.479 2.567-0.248 3.749 0.891 6.239 0.72 1.095 1.625 3.331 2.108 6 2.16-1.117-1.042-3.918-0.401-4.08-2.4 3.552-0.394 5.67 2.622 9.601 2.64-0.752-1.008-2.866-0.653-3.36-1.92 1.11-1.218 2.641 0.27 3.84 0.721 1.229 0.461 2.634 0.625 3.601 1.199 0.652-0.219-0.64-0.445-0.24-1.199 2.165-0.987 3.542 0.965 5.521 0.239-0.125 0.355-0.355 0.605-0.48 0.96 1.842-0.676 3.26 0.38 5.28 0.24 0.595-0.175-0.793-0.722 0-1.2 2.069 0.73 4.085 1.516 6.72 1.681 0.274 0.755-0.377 0.583-0.48 0.96 0.838 1.078 2.891 1.126 2.641 2.64-0.82 0.15-1.439-0.232-2.641-0.24-0.173 1.374 1.374 1.027 1.2 2.4-1.799 0.165-2.557-2.698-5.52-2.16 0.111 1.409 1.892 1.148 1.92 2.64-2.605 0.046-2.483-2.637-5.28-2.399 0.274 0.538 2.245 0.619 1.44 1.439-0.665 0.969-2.087-0.637-3.36-0.96-0.759-0.192-1.303 0.265-1.92-0.239-0.842 0.065 0.603 0.894-0.24 0.96-2.616-0.041-4.581-2.766-8.64-2.16-0.688 0.474 1.206 0.375 0.72 1.439-2.989 0.094-5.267-2.562-8.88-2.64-0.105 1.065 1.326 0.594 0.96 1.92-1.77-0.022-2.295-2.188-4.08-1.439v-0.961c-1.307 0.384-2.216-0.633-3.84-0.479-1.015 0.096-2.551 0.224-3.12 0.96-1.987-0.412-3.451-1.349-6-1.2-0.762 0.359 1.02 1.377-0.24 1.44-0.342 0.715-2.116-0.347-3.359-0.721-0.388-0.115-0.967 0.093-1.2-0.239-0.651 0.148-1.904-0.305-2.16 0.239-0.644-1.268-3.106-1.076-4.32-0.479-0.822-1.253-0.656-2.293-0.239-3.84 1.182-0.152 2.974-1.591 3.119 0.479-0.208 0.831-1.602 0.479-1.68 1.44 0.179 0.541 1.347 0.094 1.92 0.24 0.719-0.158-0.229-0.514 0-0.96 1.92-0.47 3.05-1.75 4.56-2.64zm0.96-112.56c0.196-0.174 0.644-1.661-0.24-1.44-0.33 0.31-0.42 1.44 0.24 1.44zm-1.44 1.68c0.597-0.43 0.454-1.334 0-1.92-0.26 0.25-0.5 1.71 0 1.92zm0.48 1.68c0.632 0.073 0.787-0.332 0.72-0.96h-0.72v0.96zm-0.72 1.68c-0.017-0.703-0.087-1.354-0.96-1.2 0.01 0.7 0.08 1.35 0.96 1.2zm-0.24 3.84c0.432-0.46 0.067-1.478-0.721-1.44-0.01 0.73-0.14 1.58 0.72 1.44zm-1.2 1.2c0.013-0.413-0.185-0.615-0.48-0.721-0.02 0.41 0.18 0.62 0.48 0.72zm2.4 1.44c0.098-0.82 0.544-1.748-0.72-1.68-0.12 0.91 0.1 1.5 0.72 1.68zm-4.08 0h0.48c0.014-0.307 0.308-0.332 0.24-0.72h-0.48c-0.02 0.31-0.31 0.33-0.24 0.72zm2.88 0.96c-0.028-0.612-0.046-1.234-0.721-1.199 0.08 0.56 0.24 1.03 0.72 1.2zm0.96 2.16c-0.028-0.612-0.046-1.234-0.721-1.2 0 0.63-0.23 1.51 0.72 1.2zm0.72 2.64c0.568-0.363 1.261-1.977 0-2.16-0.19 0.55-1.04 1.83 0 2.16zm-2.4 0.48c-0.001-0.429 0.646-1.396 0-1.68-0.67 0.2-0.6 1.43 0 1.68zm4.08 9.12c1.041 0.16 0.646-1.114 0.721-1.92-0.75 0.11-1.2 1.32-0.72 1.92zm-2.16 3.12c0.723 0.241 0.426-0.535 0.48-0.96 0.835 0.153 1.919-1.593 0.72-1.92-0.5 0.87-1.28 1.44-1.2 2.88zm3.84-0.72c0.502-0.573 0.143-1.739-0.48-1.921-0.5 0.57-0.25 1.85 0.48 1.92zm-1.44 1.92c0.634-0.259 0.634-1.662 0-1.92-0.03 0.47-1.2 1.75 0 1.92zm0.48 2.16c-0.172 0.652 1.131-0.171 0.96 0.48-0.159 2.187-1.675 2.803-0.96 5.28 2.041-0.982 3.84-1.301 3.6-3.601-0.039-0.376-2.399-4.03-2.4-4.8-0.29 0.99-1.32 1.24-1.2 2.64zm-1.44-0.48c0.327-0.306 0.371-1.176-0.24-1.2-0.38 0.36-0.18 0.98 0.24 1.2zm-0.72 1.2c0.036-0.597-0.124-0.996-0.48-1.2 0.1 0.45-0.33 1.45 0.48 1.2zm1.68 1.44c0.409-0.387 0.22-1.237-0.24-1.439-0.33 0.31-0.42 1.44 0.24 1.44zm-0.72 1.2c-0.033-0.447-0.158-0.802-0.48-0.96 0.05 0.43-0.25 1.2 0.48 0.96zm-1.2 1.44h0.479v-0.96h-0.479v0.96zm0.48 1.68h0.48v-0.48h-0.48v0.48zm-1.68 11.28c0.638-0.562 1.384-1.017 1.68-1.92-0.99 0.06-2.29 1.06-1.68 1.92zm1.92 1.2c1.264 0.058 1.451-2.22 1.44-2.64-0.72 0.64-1.26 1.47-1.44 2.64zm-3.6 2.16c1.171-0.353 2.917-1.396 2.16-2.88-0.98 0.7-1.9 1.47-2.16 2.88zm-1.68 0.96c0.629-0.262 1.328-1.698 0.961-2.159-0.35 0.47-1.26 2.61-0.96 2.16zm4.32 0c0.488-0.632 0.825-1.415 1.2-2.159-0.89 0.08-1.69 1.5-1.2 2.16zm-3.84 1.92c1.16-0.284 2.843-1.311 2.16-2.64-0.65 0.8-2.62 1.54-2.16 2.64zm-2.64 0.96c1.512 0.232 1.462-1.097 1.92-1.92-0.96 0.32-1.77 0.79-1.92 1.92zm-16.804 4.56c-1.39-0.69-0.63 0.59 0 0zm11.761 10.32c1.099 0.771 1.473-0.63 1.92-1.2 0.541-0.691 1.441-1.57 1.2-2.641-0.308-0.013-0.333-0.307-0.721-0.239-0.06 2.1-1.962 2.36-2.403 4.08zm-0.721-0.96c0.249-0.958 2.053-1.619 1.681-2.4-0.812 0.35-3.773 1.42-1.681 2.4zm-14.639 0.24c0.096-0.624 0.716-0.724 0.72-1.439-0.866 0.211-1.602-0.938-2.16-0.24 0.605 0.44 0.682 1.4 1.44 1.68zm11.28 0c0.244-0.315 0.235-0.885 0.479-1.199-0.422 0.138-1.41-0.29-1.439 0.239 0.423 0.22 0.397 0.89 0.96 0.96zm-3.12-0.72c-0.067 0.547 0.058 0.902 0.479 0.96-0.004-0.359 0.892-0.981 0.24-1.2-0.039 0.28-0.378 0.26-0.719 0.24zm8.16 10.32c0.34-1.381-1.169-0.911-1.2-1.92 0.502-0.523 0.685 0.119 1.439 0 0.322-2.959 2.228-4.333 2.16-7.681 0.378-0.022 0.832 0.032 0.721-0.479-0.099-0.302-0.31-0.491-0.721-0.48-0.26 3.57-6.944 8.45-2.403 10.56zm-14.88-7.68c0.448-0.547 1.378-2.352 0-2.64-0.613 0.94-1.417 2.02 0 2.64zm3.119-0.24c0.205-0.676 0.775-0.985 0.721-1.92-1.449-1.65-2.394 1.55-0.721 1.92zm3.12 0c0.023-0.983-0.032-1.888-0.96-1.92-0.415 0.59 0.031 1.93 0.96 1.92zm2.161 0.48c0.85-0.611 0.387-1.927-0.479-2.16-0.451 0.85-0.142 1.73 0.479 2.16zm2.4-0.72c0.27 0.051 0.373 0.267 0.479 0.479 0.769-0.031 1.057-0.544 0.96-1.439-0.33 0.01-0.526-0.113-0.72-0.24-0.073 0.57-0.832 0.45-0.719 1.2zm-10.32 1.44c0.783 0.177 0.803 1.118 1.68 1.2 0.021-1.221-0.318-2.081-0.96-2.64-0.213 0.51-0.731 0.71-0.72 1.44zm4.32 1.92c0.633-1.238 0.551-2.854-0.72-3.36-0.85 1.08-0.345 2.85 0.72 3.36zm8.64-1.68c0.267-0.453 0.599-0.841 0.72-1.439-1.232-0.44-2.04 1.47-0.72 1.44zm4.563 7.2c0.274-2.846 1.301-4.939 1.92-7.44-0.651-0.148-0.598-1.002-1.44-0.96-0.45 2.34-2.33 6.04-0.48 8.4zm-10.563-6.24c0.618-0.793-0.153-1.8-0.96-1.92-0.185 1.15 0.339 1.58 0.96 1.92zm2.88 0.24c0.348-0.373 0.505-0.936 0.721-1.44-0.293-0.026-0.568-0.071-0.48-0.479-1.107-0.02-1.248 1.76-0.241 1.92zm0.96 0.72c0.457 0.104 0.604 0.518 1.2 0.48 0.199-0.601 0.657-0.942 0.72-1.681-1.105-0.64-1.847 0.13-1.92 1.2zm-5.041 1.44c-0.039-0.76 0.639-0.803 0.48-1.68-0.477-0.004-0.306-0.655-0.96-0.48-0.331 0.73-0.411 2.01 0.48 2.16zm-2.399-0.48c-0.374-0.506-0.43-1.33-1.2-1.439-0.253 0.94 1.701 1.81 1.2 1.44zm5.76-0.24c0.196-0.917-0.511-0.93-0.96-1.2-0.063 0.78 0.285 1.16 0.96 1.2zm13.683 2.4c-0.758 1.002-1.418 2.102-1.199 4.08 0.636 0.004 1.413-0.133 1.439 0.48-0.343 1.347-0.617 2.211-1.68 2.399-4.258 0.757-1.698-6.987 0-8.16-0.144-0.863 0.086-1.354 0.72-1.439 0.819 0.061 0.488 1.271 1.2 1.439 0.333-0.307 0.146-1.133 0.479-1.439-1.459-0.061-2.261-0.779-3.6-0.96-0.961 2.639-0.857 6.342-3.36 7.439-0.605-0.594-1.287-1.112-2.399-1.199v1.439c2.896 0.863 4.872 2.648 5.279 6 3.091-0.51 3.868-3.332 6.721-4.08 0.604-1.236 1.875-1.805 2.64-2.88-0.673-1.487-2.017-2.303-1.68-4.8-1.053-0.253-0.788 0.812-1.681 0.72-0.337-0.84 0.674-1.536 0-1.92-1.552 1.327-1.323 4.437-2.88 5.76-1.35-0.39 0.52-3.36 0-2.88zm-16.084-0.72c0.348 0.453 0.536 1.063 1.44 0.96-0.188-0.988 0.368-1.231 0.24-2.16-0.975-0.55-1.766 0.02-1.68 1.2zm2.641 2.88c1.711 0.208 2.63 1.21 4.319 1.44 0.819-1.25-0.514-2.126-1.439-2.4 0.304 0.943-0.566 0.714-1.2 0.72 0.012-1.349 0.254-2.466 0.48-3.6-0.502-0.139-0.686-0.595-1.44-0.48-0.969 1.45-0.735 2.88-0.72 4.32zm-20.641-2.4h0.48c-0.001-0.24 0.194-0.285 0.24-0.479-0.307-0.014-0.333-0.308-0.721-0.24 0.001 0.24 0.001 0.48 0.001 0.72zm-10.799 6.24c1.986-0.894 3.646-2.113 5.76-2.88 0.859-1.86 3.271-2.169 4.561-3.6-3.287 2.31-8.298 2.91-10.321 6.48zm8.4-1.2c0.515 0.012 1.65-0.559 0.96-0.96-0.023 0.62-0.937 0.34-0.96 0.96zm-9.12 3.12c1.546-0.613 3.204-1.115 4.08-2.399-1.443 0.72-3.107 1.21-4.08 2.4zm48.243 6.48c0.676 0.312 0.773-0.346 1.199-0.721 0.343-0.301 0.946-0.652 1.2-0.96 0.119-0.144-0.113-0.57 0-0.72 0.415-0.542 1.818-1.065 1.2-1.68-1.01 1.56-2.68 2.45-3.6 4.08zm-47.764-0.24c0.414-0.786 1.267-1.134 1.681-1.92-1.295-0.25-1.813 1.54-1.681 1.92zm46.804-0.96c0.703-0.017 0.891-0.549 1.199-0.96-0.77-0.05-1.04 0.4-1.2 0.96zm-45.844 2.64c-0.26-0.614 0.729-1.144 0-1.439-0.187 0.17-0.533 1.34 0 1.44zm47.044 0c0.561-0.08 1.034-0.246 1.2-0.72-0.42 0.22-1.29-0.01-1.2 0.72zm0.72 1.68c0.058-0.343 0.395-0.405 0.479-0.721-0.418 0.019-0.746-0.053-0.96-0.239-0.07 0.55 0.05 0.9 0.48 0.96zm0 1.68c1.172-0.035 2.287-1.384 1.68-2.4-0.38 0.98-1.25 1.48-1.68 2.4zm1.2 2.88c-0.1-0.833 1.369-1.332 0.72-1.92 0.02 0.76-1.43 1.28-0.72 1.92zm-1.2-0.96c0.646 0.165 0.464-0.496 0.72-0.72h-0.72v0.72zm1.2 3.12c0.066-0.667 1.514-1.188 0.72-1.92-0.05 0.69-1.28 1.43-0.72 1.92zm-1.44-0.72c0.677 0.037 0.602-0.679 0.96-0.96-0.75-0.11-1.07 0.21-0.96 0.96zm5.52-0.24c0.064-0.327-0.149-0.937-0.24-0.48-0.07 0.33 0.15 0.94 0.24 0.48zm-4.32 3.6c0.479-0.8 1.258-1.302 1.439-2.399-0.85 0.28-1.6 1.91-1.44 2.4zm-3.84 7.2c2.247-0.872 4.133-2.106 5.76-3.6-0.037-0.283 0.041-0.682-0.24-0.721-1.16 2.13-4.42 2.14-5.52 4.32zm4.56-1.44c1.216-0.465 2.134-1.227 2.64-2.4-1.05 0.64-1.71 1.65-2.64 2.4zm3.12-1.2c0.61-0.029 0.931-0.35 0.96-0.96-0.68-0.04-0.61 0.68-0.96 0.96zm-4.08 1.68c-0.162 0.558-0.798 0.643-0.96 1.2 1.753 0.232 2.693-0.347 3.36-1.2-1.02 0.28-1.73 1.2-2.4 0zm8.16 0.72c-1.54-0.28-0.53 0.73 0 0zm3.84 1.2c-0.304-0.275-1.893-0.482-2.16 0 0.81-0.23 1.64 0.74 2.16 0zm-18.48 0.48c0.833-0.192 0.923 0.357 1.681 0.239 0.23-1.13-2.07-0.42-1.68-0.24zm13.92 0.48c-0.422 0.139-1.41-0.29-1.44 0.24 0.3 0.33 1.43 0.42 1.44-0.24zm-7.44 0.24c-0.651 0.148-1.904-0.305-2.16 0.24 0.54 0.16 2.01 0.62 2.16-0.24zm16.08 0.48c-0.638 0.136-1.223-0.987-1.68-0.239 0.37 0.13 1.28 0.93 1.68 0.24zm13.44 0.72c-0.449-0.054-1.59-0.619-1.92 0 0.45 0.05 1.59 0.62 1.92 0zm-7.92 0.48c0.848 0.64 2.981 0.675 3.841 0-1.03-0.61-2.75-0.55-3.84 0zm23.52 0.72c-1.08-0.286-2.171-1.822-3.601-0.961 1.59 0.22 2.17 1.77 3.6 0.96zm-12.24 0.72c-0.429 0.001-1.396-0.646-1.68 0 0.43 0 1.39 0.65 1.68 0z"/>
<path id="path3713" style="clip-rule:evenodd;fill-rule:evenodd" d="m81.967 167.77c-1.616 0.335-1.533-1.028-2.4-1.44-1.058-0.308-0.983 1.148-1.68 0.48 0.578-1.471 0.662-1.238 0-2.641 0.83-0.189 1.013 0.267 1.439 0.48 0.477-0.164 0.549-0.731 0.96-0.96 0.167-0.808-0.493-0.787-0.72-1.2-1.424 0.176-1.246 1.953-2.64 2.16-0.062-2.142 2.279-1.881 2.159-4.08 0.836 0.537 1.647-0.653 1.92-1.44-0.045-0.194-0.24-0.239-0.239-0.479-2.71 0.49-2.168 4.232-5.28 4.319 1.263-1.536 2.462-3.138 3.84-4.56-0.178-0.702-0.58-1.18-0.96-1.68 0.32-0.61 1.568-0.151 1.2 0.72 0.547 0.067 0.902-0.058 0.96-0.48 0.399 0.4 0.445 1.155 0.96 1.44 0.359-0.36 0.722-0.718 1.2-0.96 0.117-0.758-0.433-0.848-0.24-1.68 1.176 0.104 1.02 1.54 1.92 1.92-1.309-2.897-0.32-6.362 0.96-8.641 1.227 1.04 0.149 2.584 0 3.601-0.596 4.054 3.628 5.821 4.08 9.12-0.453 0.18-0.166 0.716-0.72 0.239 0.066 1.665 0.128 2.78 0.96 4.08-0.699 0.671-1.19-0.22-1.68-0.479 0.1 1.188-0.073 0.782-0.961 0.72 0.187 0.214 0.259 0.542 0.24 0.96 0.85 0.13 0.591-0.85 1.44-0.72 0.155 0.876-0.162 1.278-0.48 1.68 1.128 0.407 0.312-1.127 1.44-0.72-0.539 1.2 2.299 4.197-0.24 5.04 0.376-4.98-7.476-0.38-7.438-4.8zm1.68-8.64c0.5-0.478 0.008-1.025-0.48-1.2-0.381 0.36-0.351 1.37 0.48 1.2zm-0.96 0.96c-0.116-0.283-0.256-0.544-0.48-0.72-0.038 0.32 0.376 1.32 0.48 0.72zm1.92 1.2c0.075-0.324 0.342-0.458 0.24-0.96-0.325-0.075-0.459-0.342-0.96-0.24-0.048 0.69-0.03 1.31 0.72 1.2zm1.92 0.48c0.381-0.359 0.351-1.369-0.48-1.2-0.38 0.36-0.351 1.37 0.48 1.2zm-5.28 0.72c0.255-0.638 0.18-1.365-0.72-1.44-0.761 0.56-0.175 1.28 0.72 1.44zm1.44-0.24c0.343 0.058 0.404 0.396 0.72 0.48 0.409-0.388 0.22-1.237-0.24-1.44-0.003 0.48-0.655 0.31-0.48 0.96zm3.12 0.96c0.05-0.689-0.062-1.219-0.48-1.439-0.636 0.47-0.536 1.42 0.48 1.44zm-3.12 0.96c0.113-0.754-0.3-0.98-0.72-1.2-0.407 0.4-0.191 1.41 0.72 1.2zm1.92 0.72c0.51-0.538 0.171-1.581-0.48-1.68-0.352 0.38-0.496 1.91 0.48 1.68zm2.16 0.48c0.047-0.688 0.029-1.31-0.721-1.2 0.029 0.61 0.046 1.24 0.721 1.2zm-6.721-0.24c0.296 0.745 0.528 1.552 1.44 1.681-0.185-0.905 0.293-1.147 0.24-1.921-0.613-0.78-1.213-0.33-1.68 0.24zm3.841 0.96c-0.029-0.61-0.35-0.931-0.96-0.96 0.082 0.56 0.156 1.13 0.96 0.96zm1.92 0.72c0.406-0.403 0.19-1.409-0.721-1.2-0.046 0.69-0.029 1.31 0.721 1.2zm-3.36 0c0.241-0.001 0.286 0.194 0.48 0.239-0.023-0.377 0.031-0.832-0.48-0.72v0.48zm2.4 1.2c-0.102-0.459-0.087-1.032-0.721-0.96-0.067 0.63 0.088 1.03 0.721 0.96z"/>
<path id="path3715" style="clip-rule:evenodd;fill-rule:evenodd" d="m66.847 68.171c3.875-1.244 5.672-4.567 10.08-5.28-0.372 2.03-2.749 2.357-4.08 3.36-1.243 0.937-2.828 2.259-3.841 3.36-0.367 0.4-0.388 1.008-0.72 1.44-0.988 1.287-2.446 2.3-3.6 3.36-0.639 2.881-3.15 3.89-4.08 6.48-0.779 0.18-0.851 1.07-1.68 1.2-0.746 1.735-1.179 3.782-2.881 4.56-2.188 5.278-6.133 10.498-8.159 16.32-0.326 0.936-0.544 2.626-0.96 4.08-0.626 2.184-1.365 3.535-1.921 6.24-0.163 0.796-0.599 1.721-0.239 3.12 0.276 1.079 1.759 1.991 1.439 3.36-1.16 0.394-3.009-0.678-3.359-1.68-0.8-2.28-0.814-4.155-0.24-6.72 0.779-3.483 2.018-6.95 3.36-10.32 0.187-0.47 0.03-0.969 0.239-1.44 1.937-4.36 4.836-9.474 7.44-13.68 2.605-4.209 5.604-7.9 8.16-11.28-0.941-0.316-2.445-0.606-3.36-0.24 0.066 1.51 1.775-0.072 2.16 0.96-0.313 0.727-1.126 0.955-2.16 0.96-0.368 2.352-1.646 3.794-4.08 4.08-0.528-0.959 1.011-1.629 1.44-2.4-4.191 0.208-3.566 5.234-6.96 6.24-0.781-0.019-1.293-0.307-1.44-0.96-0.932 1.23-1.841 3.486-4.08 2.64-0.464-2.704 2.067-2.414 2.641-4.08-2.688-0.689-5.527-0.443-7.921 0.24-0.604-0.602 0.459-0.759 0.721-1.2-2.776-0.221-5.122-1.163-6.96-0.48-0.799 0.165-0.387-0.496-0.24-0.72-2.116 0.403-4.542 1.372-6.72 0.96 0.452-1.438 2.371-0.915 3.6-1.2 1.476-0.342 2.921-1.174 4.32-1.2 0.512-0.112 0.457 0.343 0.479 0.72 1.636-0.365 2.886-1.114 4.561-1.44-3.562-1.612-6.729 0.103-10.801 0.48-2.18 0.202-4.464 1.467-6.239 0.48 0.457-0.793 1.676-0.777 2.64-0.96 2.24-0.426 5.639-0.548 7.92-1.2 0.142-0.861-1.434-0.006-1.2-0.96-2.341 0.858-5.604 0.795-8.399 1.2-0.168-0.888 0.38-1.061 1.2-0.96-0.107-0.693-1.813 0.213-1.921-0.48v-0.72c0.084-0.876 1.549-0.372 2.16-0.72 1.495-0.505 2.674-1.327 4.561-1.44 0.276 0.284 0.271 0.849 0.24 1.44 2.752-0.368 4.327-1.913 6.96-2.4-0.6 1.96-2.927 2.193-4.561 3.12 2.485 1.871 5.701 0.309 7.92-0.72-0.593-0.538-3.636 0.818-3.84-0.72 0.617-0.933 2.408-0.438 3.6-0.72 1.443-0.341 3.622-1.274 6-1.2 0.793-0.168 1.259-0.662 1.921-0.96v1.44c4.019-0.142 6.172-2.147 10.079-2.4 0.724 1.021-0.944 1.356-1.439 1.92 1.267 0.175 1.904-0.936 2.88-1.44 1.845-0.954 4.206-1.139 6.24-1.92 2.107-0.809 4.035-1.833 5.76-2.88-0.127-0.193-0.25-0.39-0.24-0.72-1.551-0.028-4.146 0.972-5.52 1.92-4.029 0.783-8.788 2.25-13.2 2.64-6.52 0.577-13.475-0.062-19.92 0.48-5.151 0.434-10.156 0.456-16.08-0.48-5.022-0.793-8.719-2.808-12.48-5.04-1.26 1.23 0.189 2.613 0.721 3.6 1.831 3.403 4.176 6.592 7.68 9.12 1.019 0.734 2.035 2.234 3.36 3.12 1.028 0.688 2.045 0.966 3.359 1.68 3.697 2.008 8.99 4.378 15.36 3.84 2.344-0.198 4.62-1.032 7.2-1.44 1.132-0.516 2.577-1.838 3.84-1.44-0.51 4.136-6.453 5.15-10.8 5.52-1.242 0.106-2.444 0.122-3.84 0-9.756-0.851-19.216-7.236-24.721-14.4-2.041-2.657-5.642-7.994-3.6-11.76 2.487-0.75 3.349 1.306 5.04 2.16 0.468 0.236 1.39 0.195 2.16 0.479 1.668 0.617 4.668 1.788 7.199 2.16 3.349 0.493 7.275-0.057 10.801 0.24 4.751 0.4 10.623-0.269 16.319-0.24 7.993 0.041 17.643-1.18 24.48-3.6 1.252-0.443 3.226-1.663 5.52-1.44-0.081 1.358-1.464 1.416-2.159 2.16-0.166 0.966 1.01 0.589 0.96 1.44-0.665 1.817-3.092 1.87-4.079 3.362zm-1.92 0.48c0.414 0.061 1.421-0.452 0.72-0.72-0.026 0.453-0.794 0.167-0.72 0.72zm-2.4 2.4c0.76-0.2 1.22-0.7 1.68-1.2-1.063-0.103-1.52 0.4-1.68 1.2zm-10.32 0.96c2.191-0.413-0.169-0.706 0 0zm10.799 0.48c0.426-0.055 1.202 0.242 0.961-0.48-0.447 0.033-0.802 0.158-0.961 0.48zm-5.759 0.48c0.945 0.145 1.246-0.354 1.681-0.72-0.717 0.084-1.463 0.139-1.681 0.72zm-17.04 0.72c0.767-0.514 2.032-0.528 2.641-1.2-1.199-0.071-2.914 0.598-2.641 1.2zm1.919 0.72c1.108-0.148 1.382 0.539 2.4 0.48 0.334-0.866 1.854-0.545 1.68-1.92-1.559 0.235-3.131 0.139-4.08 1.44zm4.321 0.72c1.603 0.608 2.719-0.395 3.36-1.44-1.842-0.241-2.863 0.337-3.36 1.44zm3.84 0.24h2.16c0.019-0.861 0.929-0.831 1.2-1.44-1.891-0.291-2.792 0.408-3.36 1.44zm4.32 0c1.266 0.146 2.027-0.213 2.16-1.2-1.336-0.215-1.678 0.563-2.16 1.2zm-30.24-0.24c-2.151 0.246 0.732 0.246 1.44 0-0.038-0.282 0.041-0.681-0.24-0.72-0.219 0.422-0.841 0.439-1.2 0.72zm12.24 0.72c2.09 0.404 4.571 1.241 5.76-0.48-2.209-0.816-3.898-0.616-5.76 0.48zm6.24 1.2c1.23 0.456 3.46 0.413 3.6-0.96-1.663-0.143-2.727 0.313-3.6 0.96zm4.32 0.72c1.646 0.206 2.229-0.652 3.12-1.2-1.519-0.079-2.902-0.022-3.12 1.2zm4.08 0c1.446 0.167 2.112-0.447 2.641-1.2-1.249 0.033-2.038 0.523-2.641 1.2zm4.08-0.72c0.972-0.332 0.759 0.521 1.44 0.48-0.054-0.454 0.271-0.53 0.239-0.96-0.757-0.038-1.448-0.009-1.679 0.48zm-19.201 2.4c3.118 0.66 5.842 0.98 7.44-1.2-2.691-0.635-5.859-0.039-7.44 1.2zm6.721 0.96c0.721 0.319 1.836 0.244 2.88 0.24-0.221-1.261 1.098-0.982 1.2-1.92-2.195-0.275-2.677 1.163-4.08 1.68zm5.279 0c1.84-0.2 3.154 0.159 3.841-1.44-1.745-0.024-4.575-0.263-3.841 1.44zm-0.479 2.4c0.045-0.675 0.783-0.657 0.96-1.2h-0.96c0.312 0.596-0.704 0.996 0 1.2z"/>
<path id="path3717" style="clip-rule:evenodd;fill-rule:evenodd" d="m70.687 99.611c-0.242-0.531-0.826 0.591-1.681 0.24v-0.96c-4.265 0.14-4.525-4.303-4.079-8.16 0.446-0.033 0.802-0.158 0.96-0.48 0.103-0.982-0.508-1.253-0.96-1.68 0.197-5.723 3.276-8.563 6-11.76 0.683 0.32-0.186 1.067-0.24 1.44 1.217-0.863 3.318-0.841 3.359-2.88 0.646-0.166 0.464 0.496 0.721 0.72 0.915-0.01 1.442-1.262 2.399-0.48-0.23 1.739-2.249 2.082-3.359 3.12-1.025 0.958-1.519 2.208-2.641 3.12-1.722 4.938-1.265 10.289 1.2 14.16 0.624 0.979 1.825 1.307 1.68 2.64-0.992 0.288-2.371 0.189-1.92 1.92-0.763 0.037-1.056 0.544-1.92 0.48 0.004-0.63-0.132-1.412 0.481-1.439zm-3.601-15.12c1.062-0.058 1.413-0.828 1.681-1.68-0.9 0.22-1.46 0.78-1.681 1.68zm-0.96 2.4c0.413 0.013 0.615-0.185 0.721-0.48-0.413-0.013-0.615 0.185-0.721 0.48zm1.201 3.84c0.7 0.353 0.7-1.073 0-0.72v0.72zm-1.68 1.44c0.668 0.385 0.663-1.036 0.24-0.96-0.076 0.325-0.342 0.458-0.24 0.96zm3.12 1.92c-0.664 0.912 0.88 1.055 0 0zm-2.4 1.2c-0.198 0.678 0.339 0.622 0.24 1.2 0.678 0.198 0.622-0.338 1.2-0.24v-0.96c-0.449-0.47-0.879-0.074-1.44 0zm1.679 2.4c0.843-0.042 0.79 0.811 1.44 0.96-0.165-0.805 0.402-0.877 0.96-0.96 0.096-0.896-0.191-1.408-0.96-1.44-0.307 0.652-1.229 0.691-1.44 1.44z"/>
<path id="path3719" style="fill-rule:evenodd" d="m127.72 95.426c-2.0977 0.47764-3.6402 3.48-5.972 4.6269-1.0692-0.27858 4.1747-4.1153 3.2326-8.4747 1.1655-2.4344 5.1636-2.9425 4.4497-6.6551 0.70924-0.14445 1.1343 0.41351 1.6887 0.6519 0.35919-0.58421 0.69573-1.1828 0.17514-2.3632 1.2122 0.60712 1.9717 0.22585 3.0887-0.87833 0.22376-0.51082-0.0938-1.3867-0.28861-2.1821 0.93167 0.10612 2.0278 0.73256 2.9312-0.48898-0.10034-1.1615-0.98398-1.4366-0.59485-2.3904 0.88449-0.5776 1.3949-0.23054 1.5312 1.0412 0.42474-0.12492 0.39779-0.55692 0.85314-0.66098 0.74207-0.40451-0.0652-1.8637-0.2064-2.8699 0.46375-0.18111 0.9275-0.3622 1.3912-0.54329 0.15403 1.7265 1.2942 1.3031 0.97543 2.8974 1.883-0.37333-0.14933-3.4113 0.65651-4.5182 0.97444-0.48024 0.92629 1.5711 1.5223 2.0282 2.8071-0.46375-0.13459-3.3351 0.81402-4.9076 1.0598-0.36739 1.327 1.222 1.671 2.6258 0.88904-0.22286 1.593-0.57156 1.4001-1.5302-0.28846-1.0484-0.60815 0.93413-0.76997-0.02702-0.27137-1.0947 0.88763-1.2167 0.10078-2.662 2.9215-0.44696 4.5846-3.5825 6.5189-5.4962 0.23944 0.21247 0.53498 0.28829 0.84434 0.32595 0.49959 0.8362-0.18362 0.86807-0.16537 1.3759 0.34086 0.60725 1.3296-0.39079 1.9294-0.42557 0.57379-1.6515-1.3715-3.5432 0.49801-4.1285 0.65432 0.47391 0.11403 1.5359 0.6692 2.6892 1.0128-0.13874 1.0753-0.92259 2.0125-1.1137-0.1365-1.7921-1.3657-2.7832-1.041-4.1831 1.2349-0.31557 1.5105 1.7377 2.2092 2.7435 0.77166-1.0608-0.83587-2.2088-0.35513-3.4675 1.0502-0.34181 1.0707 1.8576 1.9861 1.8471 0.47124-0.58972 1.078-1.0862 0.71227-2.2451 0.0468-1.4006-1.2705 0.56853-1.224-0.83337-0.23423-0.90296 0.62823-1.0622 1.1672-1.4393 0.16924 0.70567 0.61805 0.72439 0.67801 1.7022 0.81301-0.19182 0.0352-1.4644 1.1672-1.4393-0.77139-1.954-1.9254-2.9622-3.2022-3.667-4.3402 1.2632-6.8976 5.7041-10.163 8.2307-0.35193 0.27266-1.0314 0.23883-1.3903 0.5429-1.8051 1.5299-4.1502 4.4509-6.064 6.302-1.6416 1.5863-3.7148 2.8139-4.8968 4.8627-1.9942 0.68039-3.2925 2.9604-4.5054 4.382-1.2493 1.4631-2.9551 2.3055-4.1923 3.6041-0.58152 0.61091-1.0254 1.123-2.0204 2.1003-1.0548 1.0348-2.1134 3.6433-3.6444 2.7345-0.0117-1.2481 1.0466-1.7706 1.947-2.3995 11.636-12.774 21.418-20.758 31.72-33.04 1.0821-0.42255 2.1642-0.84511 3.2462-1.2677 3.1353 1.5964 5.3164 4.0011 6.6187 9.2174 0.0364 0.71251 0.54845 0.25298 0.68585 0.71567 0.19016 2.2807-0.18236 4.1787 0.0958 6.5192-2.0949 2.8615-5.0522 4.0164-7.6783 5.9489-1.0221 0.75294-2.904 2.724-4.3489 3.9931-1.4607 1.2821-2.8737 2.4581-4.4232 3.6943-1.4044 1.1208-2.5525 2.6072-3.8851 3.812-3.2548 2.9416-7.4516 5.3263-10.016 8.8286-1.2075 0.66823-2.29 1.4215-2.6426 2.6711-3.3411 2.2199-6.4874 4.5495-9.5421 7.6602-1.0283 1.0477-1.9292 3.4593-3.6356 1.7476-0.22361-0.9795 0.89254-1.0479 1.4-1.5302 1.0696-1.6784 2.6836-2.9794 4.2803-4.2941zm36.756-36.318c1.0773-0.35238 0.58674-3.0649-0.19663-3.8572-0.55572 0.70602-0.8212 2.9065 0.19663 3.8572zm-3.2551 2.2546c0.30877 0.89572-0.18212 1.6365 0.5205 2.0916-0.77057 2.4837-3.1853 2.3134-3.5887 5.0076 1.5705-1.4971 3.7978-2.5485 5.3507-4.0565 0.019-1.8064-0.24968-3.8105-0.4109-5.7405-0.18381-0.11673-1.2746-0.26996-1.1584 0.45236 1.2576 0.18915-0.11322 1.7899-0.71326 2.2455zm-10.146 6.2568c0.71972-0.66897 2.0994-0.88812 1.4089-2.5172-0.66484 0.70629-1.9383 0.99869-1.4089 2.5172zm13.681-5.3423c-0.0957-0.64425 0.99818-0.47856 1.0097-1.0499-0.2526-0.8234-0.7195-1.1151-1.4558-0.74282-0.12989 0.27884-0.10204 1.8689 0.44614 1.7928zm-5.1844 2.6802c-0.16819-0.85908 1.0097-0.80274 0.55573-1.8562-0.56067 0.21759-1.2218 1.6246-0.55573 1.8562zm-4.0074 0.25355c-0.2966 0.29476-1.2848 0.11922-1.085 0.75155 0.29564-0.29441 1.2851-0.118 1.085-0.75155zm-7.4376 4.8714c1.0063-0.55685 2.112-1.046 1.947-2.3994-0.73448 0.74168-2.1018 1.053-1.947 2.3994zm0.67801 1.7022c0.10099-0.92321 1.6652-0.85243 1.5576-1.9196-0.73061 0.34405-2.1303 1.5135-1.5576 1.9196zm-2.6426 2.6711c0.31917-0.77482 1.7644-0.78598 1.2513-2.1278-0.56377 0.45647-2.1431 1.5049-1.2513 2.1278zm5.3155-0.10868c2.31-1.6561 4.259-3.5578 5.9808-5.6139-2.353 1.692-5.0526 2.5454-5.9808 5.6139zm-2.0781-0.17201c0.36151-0.66435 1.0347-1.1157 1.0185-2.0369-0.81434-0.63135-1.4512 1.8616-1.0185 2.0369zm-6.0376 3.3412c0.33085 0.14535 0.72009 0.15044 1.2337-0.1539-0.49285-1.1626 0.61693-1.2353 0.17513-2.3632-0.90345 0.54404-1.8822 1.0369-1.4089 2.5172zm-2.3276 1.8924c0.63767 0.3602 1.5879-0.57091 1.0929-1.7381-0.71739 0.33751-1.3292 0.74992-1.0929 1.7381zm7.4944-2.5987c0.23592-0.83248 1.6556-0.861 1.5576-1.9196-0.67574 0.38135-2.0755 1.5508-1.5576 1.9196zm-10.137 5.2698c1.0344-0.37118 1.6472-1.0312 1.4832-2.2184-1.1538 0.29209-1.4683 1.1539-1.4832 2.2184zm4.7207-2.4991c0.40134 0.7694-0.13386 0.90191 0.13986 1.5845 1.3421-1.0732 2.8985-2.0006 3.7276-3.4227-1.3678 0.46308-2.4147 2.2365-3.8675 1.8381zm-9.8307 5.4781c0.55492-0.61556 1.2247-1.153 1.5576-1.9196-0.83946 0.42206-1.5092 0.95954-1.5576 1.9196zm2.8569-0.78777c0.9089-0.29209 1.2143-0.9946 1.0185-2.0369-0.65274 0.46526-1.221 0.98903-1.0185 2.0369zm5.249-1.3941c0.8199-0.35158 1.5575-0.76119 1.6319-1.6208-0.69578 0.43289-0.45498-1.4492-1.224-0.83337-0.30537 0.70253-0.81076 1.2701-0.40798 2.4541zm-8.1235 4.1557c0.88613-0.40068 2.5024-1.5946 1.4089-2.5172-0.21187 1.0143-1.1638 1.5254-1.4089 2.5172zm4.5534-1.1225c1.4789-0.73187 2.7305-1.6194 2.4195-3.5675-1.5925 0.65467-2.4261 1.8244-2.4195 3.5675zm-6.4827 1.548c0.24617-0.50592 1.3105-1.3149 0.16536-1.3759 0.26661 0.54745-1.1081 1.1827-0.16536 1.3759zm4.6942 0.46171c-0.004-0.66364 1.0351-0.62001 0.93631-1.3491-0.9783 0.01311 0.60459-1.5065-0.37177-1.494-0.58524 0.5236-1.2562 2.2745-0.56454 2.8431zm-7.5687 2.3c0.47458-0.42301 1.1192-0.72937 1.4754-1.2318-0.11541-0.51908-0.37023-0.69548-0.68681-0.71529-0.0543 0.7916-1.038 0.949-0.78857 1.9471zm3.5603-2.046c-0.25934-0.1774-0.60791 0.47507-0.62127 0.57043-0.0879 0.60941 0.83308-0.4264 0.62127-0.57043zm0.82768 2.2994c1.3614-0.32263 2.4491-2.1325 1.492-3.2053-0.32382 1.1864-2.116 1.3754-1.492 3.2053zm-6.5668 2.2365c0.85497-0.14666 1.1814-1.9189 0.32384-1.7656-0.077 0.61062-0.34318 1.0916-0.32384 1.7656zm2.0037-0.12683c0.84766-0.33374 1.0956-1.0753 1.3257-1.829-0.47349 0.58922-1.4424 0.84054-1.3257 1.829zm-0.407 2.4538c1.4963-1.382 3.8484-2.1831 3.9683-4.5001-0.10982-0.2112-0.15331-0.58623-0.37962-0.50743-0.41313 2.2035-2.6684 3.1511-3.5887 5.0076z" sodipodi:nodetypes="cccccccccccccccccccccccccccccccccccccccccccccccccccccccccccccccccccccccccccccccccccccccccccccccccccccccccccccccccccccccccccccccccccccccccccccccccccccccccccccccccccc" inkscape:transform-center-y="14.808156" inkscape:connector-curvature="0" inkscape:transform-center-x="21.380508"/>
<path id="path3721" sodipodi:nodetypes="cccccccccccccccccccccccccccccccccccccccccccccccccccccccccccccccccccccccccccccccccccccccccccccccccccccccccccccccccccccccccccccccccccccccccccccccccccccccccccccccccccccccccccccccccccccccccccccccccccccccccccccccccccccccccccccccccccccccccccccccccccccccccccccccccccccc" style="fill-rule:evenodd" inkscape:connector-curvature="0" d="m71.407 189.37c0.757 2.665-3.628 2.696-5.76 1.92-0.588-1.173-1.642-1.879-1.68-3.6-1.254 0.666-2.782 1.058-3.841 1.92-2.758 0.042-3.224 2.376-5.52 2.88-1.272-3.979 5.086-4.305 7.439-6.24-1.155-1.804-0.336-5.583-1.68-7.2-6.607 1.152-11.63 3.891-13.439 9.84 0.743-1.416 1.474-2.846 3.84-2.64-0.509 1.543-1.454 3.102-1.681 5.28-0.193 1.867 0.514 3.985-0.479 5.52h-0.48c-1.136-0.544-0.817-2.542-1.92-3.12v-1.439c-0.892-0.309-1.429-0.971-1.92-1.68-0.25-2.011 0.428-3.093 0.48-4.801 1.366-1.461 1.887-3.438 3.359-4.56 0.425-0.323 1.346-0.597 1.92-0.96 1.883-1.192 5.215-2.415 8.4-2.88 1.146-0.167 1.739-0.196 2.64-0.48 0.348-0.109 1.811 0.394 1.44-0.72-0.594-0.5-1.201 1.028-2.64 0.479-2.544-1.296-6.121-1.559-9.36-2.159-2.243-2.841-0.371-7.387 1.44-9.601-0.311-0.489-1.164-0.437-0.961-1.439-3.863 3.976-5.0166 6.0414-9.3306 9.5674-5.9287-0.92794-4.3642-4.5348-6.8952-8.7238-2.041-6.66-4.514-6.36-5.374-7.8 2.2106-3.136 7.2482-7.6313 7.7644-7.4508 1.2575 1.4916-1.3149 1.8114-2.7244 3.8498-1.246 0.921-2.223 1.662-2.88 2.88 0.656 1.023 2.4014 2.8236 3.2854 3.6196 0.58-0.752-2.1404-2.1146-2.0854-3.1396 0.42-1.23 2.031 0.1 3.12-0.24 1.654 0.545 3.445 3.877 4.56 1.44-0.524-1.557-2.129-2.031-2.88-3.36 0.325-1.253 1.399 0.817 2.16 0 0.168-0.942-0.809-0.652-1.2-1.2-0.979-1.368-0.506-3.569-1.68-4.8 1.005-1.627 0.268-3.146 1.199-4.8 0.987-1.75 4.479-2.74 6.721-2.641 0.934 0.042 3.142-0.045 2.64 1.681-3.599 0.001-4.959 2.24-6.72 4.08-0.25 2.97 0.253 5.187 0.96 7.199 0.067 0.628-0.088 1.033-0.72 0.961 0.469 1.051 1.548 1.491 2.159 2.399 0.535 0.016-1.47-1.396 0.24-1.2-0.791-1.688-1.79-3.169-1.92-5.52 2.824-0.024 2.621 2.979 3.6 4.8 0.82 0.18 0.306-0.975 1.2-0.72-0.929-0.97-2.76-3.456-0.72-4.561 1.279 0.561 1.521 2.159 2.16 3.36 0.355-0.278 0.604-0.278 0.96 0-0.268-0.613 0.148-1.521 0-2.4-0.373-2.209-2.694-4.958-0.72-6.96 0.509-0.345 0.503 0.231 0.96 0.48 1.66 0.905 1.992 1.856 3.6 0.24-0.202-1.158-1.182-1.539-0.96-3.12 1.422-0.062 1.2 1.52 1.92 2.16 1.16-0.553 1.331-1.403 0.72-2.641 1.297-0.288 1.272 0.743 2.16 0.24 0.729-0.296-0.26-0.825 0-1.44 0.766-0.205 0.911 0.209 1.2 0.48 1.272-0.445 0.555-1.605 0.96-2.64 0.821-0.102 0.722 0.719 1.2 0.96 0.904-1.096 1.907-2.093 3.359-2.641 0.056 1.255-1.443 0.957-1.439 2.16-0.116 0.756 1.101 0.18 1.2 0.72-1.024 0.931 0.084 1.617-1.44 2.4-1.188-0.083 0.2-0.63 0-1.2-0.631-0.071-0.188 0.932-0.96 0.72 0.419 0.942 0.552 1.634-0.479 2.16-1.016-0.185-0.116-2.284-0.96-2.64-0.424 0.217-0.743 0.537-0.96 0.96 0.464 0.896 0.59 2.13 0.479 3.6 1.762-0.318 1.96-2.199 3.6-2.64 0.187 0.214 0.259 0.542 0.24 0.96-0.298 0.822-1.681 0.56-1.439 1.92h-1.2c-0.559 0.562-0.332 1.908-0.96 2.4-0.722 0.241-0.426-0.535-0.48-0.96-0.622 0.657-0.563 1.996-0.96 2.88-1.282-0.558-0.469-3.211-1.439-4.08-0.5 0.141-0.776 0.504-1.2 0.72 0.212 0.588 0.72 0.881 0.479 1.92 0.19 1.125 0.872 0.509 1.2 1.2 0.044 1.083-0.234 1.846-0.96 2.16-1.059 0.339-0.004-1.437-0.72-1.44-0.912-0.031-1.133 0.628-1.2 1.44 0.493 0.855 0.203-1.049 0.96-0.72 0.358 0.655-0.019 2.282-0.24 3.119-1.502-1.109-1.449 0.944-1.92 2.16-0.888 0.168-1.06-0.379-0.96-1.199-0.676 0.763-0.583 2.296-0.96 3.359-0.601 0.041-0.751-0.368-0.96-0.72-0.731 1.988-2.964 2.476-3.12 5.04-0.654 0.175-0.482-0.477-0.96-0.48-0.27 0.534-0.303 2.027-1.2 1.2-0.79 0.25-0.033 2.046-1.439 1.68 0.263-1.191 0.942-2.491 0.72-3.84-0.112-0.68-0.999-1.277-0.96-1.92-0.783 1.166 0.852 3.068 0.24 4.08-1.312-0.607-1.042-2.799-1.44-4.32-0.766-0.205-0.742 0.378-1.199 0.48 1.1536 2.6985 1.842 3.9167 2.091 5.3807 0.23788 0.99875 1.4356 6.0324-0.60627 5.1695 1.643-4.604-4.5856-10.171-6.1235-9.5608 0.588 1.536 1.7897 3.0524 2.1567 5.4454 0.51 3.325 0.67612 3.6169 3.1461 5.6169 2.653-1.562 2.818-1.9697 4.855-4.3717 0.436-0.514 1.08-0.946 1.44-1.439 0.438-0.601 0.497-1.32 0.96-1.92 0.56-0.728 1.576-1.188 2.159-1.92 8.4209-9.166 15.62-16.201 17.844-17.349 2.711-0.13856-7.0307 9.0552-11.199 13.033 1.5146 1.3622 0.17556-1.1855 0.79456-1.2065 3.195 0.885 5.608 2.552 8.16 4.08 0.064-5.535 4.055-7.146 5.52-11.28-0.893-1.398-1.295-5.7 0.24-6.72 0.282 2.277 0.867 4.253 1.92 5.76 0.928-1.712 1.302-3.979 2.4-5.52-0.238-0.802-1.465-0.615-1.2-1.92-3.646-0.785-6.162 1.256-9.6 1.439-1.335-1.059-1.299-4.726 0.239-5.52-0.854-0.747-4.4323-2.4167-4.9883-3.4607-2.2247 2.825-11.777 9.1959-11.331 8.7407-1.5449-0.48382 0.8263-1.8101 1.5103-2.2401 3.0839-3.6928 6.0984-4.5179 9.0334-6.8109-0.427-0.453-0.36668 0.71497-0.22368-0.30803-1.203 0.208-2.053 0.383-1.92-1.2 5.031-0.206 7.223 3 11.76 2.4 2.078-0.275 4.577-1.702 6.24-2.88 1.983-1.404 2.7-2.219 4.08-4.32 0.442-0.674 0.747-2.697 2.4-1.68-1.847 5.113-5.504 8.417-10.32 10.56 1.547 0.854 2.459 2.341 3.84 3.36 0.582-0.219 0.636-0.965 0.721-1.681 0.943-0.496 1.9-0.979 2.64-1.68 4.238-0.158 5.647 2.513 6 6.24 1.569-2.922 3.415-5.001 6.479-6.96 2.864-1.832 8.243-1.623 12.721-2.88 0.485-0.506 1.785-1.1 2.64-0.48-0.593 1.39-2.479 2.193-4.32 2.88-3.223 1.203-8.27 1.539-10.8 3.601-0.589 0.479-1.082 1.517-1.68 2.159-1.739 1.87-3.042 3.366-4.08 6.48-2.187 0.186-2.662-1.338-3.12-2.88-1.225-1.496-3.118-2.322-5.04-3.12-0.826 0.054-0.771 0.989-1.2 1.439 0.027 0.454 0.794 0.167 0.721 0.721-1.678 5.143-3.307 11.77-3.841 18-0.137 1.604 0.107 3.042-0.479 4.319-0.146 0.318-0.19 1.248-0.96 0.96-0.696-0.532-0.66-1.857-0.72-2.64-0.358-4.657 1.274-9.071 1.92-12.72-1.58 2.644-4.367 4.688-4.561 8.64-0.131 2.684 1.412 5.812-0.24 8.4-1.658 0.139-1.373-1.667-1.68-2.88-0.654 1.186 0.219 3.898-0.72 4.8-1.024-0.096-0.229-2.012-0.48-2.88-0.923 0.116-0.137 1.943-1.199 1.92-0.852-0.548-0.138-1.827-0.24-2.88-0.154-1.576-0.827-3.379-1.44-4.32-0.119 1.172 0.704 6.096-0.96 7.2-0.801-0.23-0.062-1.649 0-2.641 0.066-1.039-0.051-1.994 0-2.88-0.859 3.061-0.927 6.914-3.359 8.4-0.08 0.961-0.654 1.427-0.961 2.16h1.2c0.917-0.843 0.669-2.852 2.4-2.88-0.185 1.175-0.775 1.944-0.96 3.12 1.076 0.35 0.804-2.712 2.399-2.641-0.284 1.156-0.636 2.244-1.199 3.12 0.51 0.37 0.894 0.866 1.439 1.2 0.854-1.031-0.309-1.553-0.24-2.4 0.379-4.666 12.919-4.141 18.24-4.319 0.198 2.104-3.574 2.552-5.76 2.64-2 0.08-3.758-0.319-5.521 0.24-1.862 0.591-2.904 1.917-4.56 2.399 2.551 4.733-1.367 15.916 6.963 15.372zm-5.52-50.16c1.82 0.031 4.231-1.346 6.479-1.68-2.002-1.811-6.214-1.356-6.479 1.68zm-6 1.2c0.749-0.21 1.253-0.667 1.199-1.68-0.799 0.161-1.302 0.617-1.199 1.68zm-3.12 3.36c0.213-0.427 0.67-0.61 0.479-1.44-0.848-0.144-1.389 1.243-0.479 1.44zm-2.641 1.68c0.642-0.193 2.048-1.237 0.96-1.68-0.452 0.427-1.062 0.698-0.96 1.68zm3.361 1.2c0.318-0.494 0.455-2.409 0-2.88-0.669 0.511-0.871 2.145 0 2.88zm-7.2 0.96c0.202-1.171-1.097-2.091-1.439-1.92 0.608 0.511 0.258 1.981 1.439 1.92zm1.44 0.24c0.578-0.462 1.46-0.619 1.439-1.68-1.018 0.021-1.512 0.566-1.439 1.68zm0.72 1.2c0.339-0.278 1.583-1.745 0.96-1.439-0.247 0.409-1.65 0.888-0.96 1.439zm-1.92 0.24c0.103-0.458 0.686-0.435 0.479-1.2-0.713-0.285-1.03 1.012-0.479 1.2zm2.4 1.2c0.138-0.674 1.749-1.115 0.96-1.92-0.012 0.8-1.834 1.031-0.96 1.92zm-1.921 0.24c0.071-0.284 0.967-0.907 0.24-1.2-0.07 0.284-0.966 0.907-0.24 1.2zm0.241 0.96c0.607 0.252 1.064-0.81 0.48-0.96 0.175 0.655-0.477 0.483-0.48 0.96zm0.48 1.68c0.058-0.422 0.413-0.547 0.96-0.48 0.035-0.595 0.045-1.164-0.48-1.199 0.002 0.58-1.384 0.989-0.48 1.679zm-2.16 0.48c0.177-0.543 0.915-0.524 0.96-1.199-0.58-0.002-1.534 0.839-0.96 1.199zm0.479 1.68c-0.328-0.985 1.06-1.479 0.48-1.92-0.275 0.38-1.253 1.285-0.48 1.92zm-4.559 0.96c0.7 0.353 0.7-1.073 0-0.72v0.72zm2.4 1.68c-0.211-0.867 0.937-1.602 0.239-2.16-0.451 0.335-1.296 1.779-0.239 2.16zm-6-0.96c-0.49-0.07-0.471-0.649-0.96-0.72-0.101 0.53 0.719 1.323 0.96 0.72zm4.32 2.64c0.162-0.944 1.007-2.496-0.239-2.88-0.772 0.789-0.296 2.106 0.239 2.88zm-2.4-1.2c0.014-0.146 0.035-0.284 0.239-0.24-0.026-0.293-0.071-0.568-0.479-0.48 0.037 0.283-0.041 0.681 0.24 0.72zm16.08 3.84c0.121-1.722-0.161-3.04-0.721-4.08 0.209 1.392 0.114 3.088 0.721 4.08zm-15.841-0.96c1.083-0.037 0.721-1.52 0.96-2.4-0.307-0.013-0.332-0.308-0.72-0.24-0.747 0.519-0.417 1.746-0.24 2.64zm10.801 3.84c0.641-0.001 0.521 0.759 1.199 0.72-0.097-0.751-0.447-1.154-0.479-1.92-0.074-1.755 1.61-3.983 0.24-5.28 0.551 2.344-0.555 4.374-0.96 6.48zm-1.2-1.2c0.74-0.365 1.052-3.498 0.72-3.359-0.155 1.205-0.636 2.084-0.72 3.359zm4.32 5.52c-0.553 1.236-2.034 2.855-2.641 3.6 2.298-0.343 1.8-3.48 3.601-4.32 0.138-1.702 1.172-2.507 0.96-4.56-1.348 1.315-1.145 3.545-1.92 5.28z"/>
<path id="path3723" style="clip-rule:evenodd;fill-rule:evenodd" d="m56.527 268.81c0.201 0.278 0.316 0.643 0.24 1.199 1.045-0.154 2.713 0.313 3.359-0.239 0.488 0.175 0.98 0.722 0.48 1.199 0.632 0.231 2.056 0.464 2.64 0-0.224-0.976-2.222-0.178-1.92-1.68 1.717-0.633 3.788 1.246 5.28 0.24 0.172 1.508 2.075 1.285 3.6 1.439-0.474-0.405-1.591-0.168-1.2-1.439 3.169-0.507 5.804 3.223 7.44 0 0.93-0.13 0.988 0.611 1.68 0.72 2.242 0.155 3.922-0.964 6-0.24 0.111 0.752-0.208 1.071-0.96 0.96 0.296 0.345 0.825 0.455 1.44 0.48 0.356-0.104-0.095-0.308 0-0.72 1.494-0.055 2.091 0.789 3.84 0.479-0.328 1.048 0.93 0.511 0.72 1.44 2.244-0.025 4.781-1.002 6.721 0 0.205 1.005-1.075 0.525-1.44 0.96 0.366 0.754 1.841 0.399 2.88 0.479 0.719-0.157-0.229-0.513 0-0.96 1.595 0.726 3.441 1.199 4.32 2.641-1.265 0.833-1.759-0.881-3.12-0.721-0.806 0.22-0.119 0.446-0.24 1.2-3.347-1.246-7.612 1.186-10.319-0.96-1.229-0.188-1.744 0.337-2.881 0.24-0.155-0.876 0.162-1.278 0.48-1.681-0.278-0.201-0.644-0.316-1.2-0.239-0.521-0.041-0.108 0.851-0.24 1.2-1.05 0.01-1.48-0.6-2.159-0.961-1.853 0.389-3.17 1.311-5.28 1.44-0.521-0.04-0.109 0.852-0.24 1.2-1.11-0.09-1.649-0.75-2.16-1.44-0.95-0.169-1.87-0.37-2.16-1.2-1.001-0.04-1.184 0.736-2.159 0.721 0.025 1.094 1.86 0.38 1.439 1.92-1.902-0.018-2.546-1.294-4.8-0.96-0.102-0.502 0.164-0.636 0.24-0.96-2.014-0.173-3.041 0.639-4.32 1.2-1.026-0.174-1.721-0.68-2.4-1.2-1.636-0.436-2.685 0.724-3.359 0.479-0.181-0.98 0.511-1.088 0.96-1.439-1.662-1.448-3.424 0.133-4.561 1.2 0.525 0.595 1.655 0.585 2.16 1.199-0.791 1.485-3.054-0.771-4.56 0.48 0.599-1.351-2.405-2.718-3.601-1.44 1.406 1.234 4.045 1.235 4.801 3.12-2.494-0.307-4.283-1.316-6.48-1.92-1.709 1.582-4.36-0.451-6.48 0.72-0.21-0.424-0.76-0.7-0.239-1.199-1.253-0.301-2.15-0.228-3.601 0.239-1.573-1.866-6.589-0.29-8.88-1.439 0.623-2.017 4.624-0.657 6.24-1.681 0.18-0.739-0.827-0.292-0.48-1.199 3.274-0.535 5.445 1.248 8.16 0.479-0.1-0.54-1.315 0.036-1.2-0.72 2.345-2.66 6.564 1.488 9.36-0.72-0.789-0.491-2.136-0.425-2.64-1.2 2.065-1.418 4.378 0.838 6.96 0.479 0.66-1.01 2.201-1.15 3.836-1.2zm-2.16 2.16c0.445 0.417 1.72 0.31 1.92-0.239-0.529-0.14-1.788-0.6-1.92 0.24zm-6.48 1.2c0.67-0.369 1.861-0.219 1.92-1.2-0.428 0.144-0.997-0.703-1.2 0 0.779 0.49-0.811 0.61-0.72 1.2zm9.84-0.24c-0.024 0.124 1.396 0.914 2.399 0.721-0.196-1.05-2.279-1.34-2.399-0.72zm9.12 0c-0.575-0.145-1.096-0.345-1.92-0.239-0.318 1.5 1.788 0.99 1.92 0.24zm-16.56 1.44c1.35 0.634 2.583-0.721 3.36-1.44-1.782-0.18-2.804 0.4-3.36 1.44zm-9.12-0.24c0.79 0.362 2.136 0.35 2.4-0.479-0.75-0.32-2.254-0.47-2.4 0.48zm36.959 0.24c0.945 0.145 1.247-0.354 1.681-0.72-0.481-0.099-1.78-0.595-2.16 0 0.337 0.06 0.273 0.53 0.479 0.72zm-11.04 0c1.044 0.413 2.119 0.613 2.641-0.48-0.896-0.43-2.091-0.11-2.641 0.48zm6.241 0c0.914 0.286 1.478 0.923 2.16 1.44 0.696-0.265 1.623-0.298 1.68-1.2-1.483 0.17-2.667-1.58-3.84-0.24zm-9.36 0c-1.098-0.103-2.035-0.365-3.36-0.24 0.307 1.49 2.768 1.48 3.36 0.24zm-27.6 0c-1.796-0.29-0.774 0.73 0 0zm8.16 0.96c0.929 0.208 1.038-0.401 1.44-0.72-0.46-0.43-1.478-0.07-1.44 0.72zm46.08 0.24c-0.359 0.041-0.886-0.086-0.96 0.24 0.359-0.04 0.886 0.09 0.96-0.24zm-47.04 0.96c-0.349 0.131-1.24-0.28-1.2 0.24 0.348-0.13 1.24 0.28 1.2-0.24z"/>
<path id="path3639-3" style="fill-rule:evenodd" inkscape:connector-curvature="0" d="m119.39 94.838c0.23148-0.05949 0.46393-0.11922 0.69735-0.1792 2.217 1.4354 5.0985 6.0752 4.1957 9.5771-1.833-0.0256-1.746-2.5115-2.2972-4.1178-0.71733-2.0923-1.8313-3.8958-2.5958-5.2801z"/><path id="path3639-0" style="fill-rule:evenodd" inkscape:connector-curvature="0" d="m119.7 101.89h0.72c1.79 1.942 3.426 7.153 1.68 10.32-1.769-0.481-1.066-2.867-1.2-4.56-0.174-2.205-0.804-4.229-1.2-5.76z"/><path id="path3165" sodipodi:nodetypes="ccccccccccc" style="fill:#000000" inkscape:connector-curvature="0" d="m31.773 157.85c-5.4112 7.4983-12.934 16.445-19.194 22.534-2.8873 2.1713 3.5762 4.0784 6.5243 2.492 3.8965-1.9598 4.5995-1.0728 8.8229-3.4039 9.8311-4.3048 10.846-8.082 13.27-7.312 4.3367-0.37367-13.683 9.967-21.683 12.22-4.5599 1.6816-4.4582 1.488-8.9417 2.8754-3.4313 1.2567-8.326 3.427-6.3294-0.14313 1.1036-0.61185 3.6975-4.5397 4.6543-5.3242 7.4493-9.7627 17.545-19.27 20.606-25.159 3.4836 0.87591 1.1956-0.86866 2.2698 1.2209z"/><path id="path3175" sodipodi:nodetypes="cccccccccccccc" style="fill:#000000" inkscape:connector-curvature="0" d="m35.618 169.48c1.7856 9.1801-0.18816 3.7499-0.42051 2.2059-1.4746 0.002 1.4178 7.0815-1.1046 0.51275 0.13641 0.87136-0.18504 2.4973-0.48833 3.6092-0.42415-4.0152-0.93646-1.8105-1.4361-1.7635 0.26541 1.2352 0.16457-0.0678 0.52776 2.3102-1.2241-1.0204-1.6104-2.2946-6.1526 1.1643-0.98176 0.62599-2.014 1.0694-3.0309 1.5664l0.90404-0.97852c1.2686-1.3485 1.579-1.0993 2.8518-1.8378 1.0049-0.74108 2.1271-0.9584 3.1099-1.7512 1.0783-1.6115-0.16875-3.7811 1.3585-1.3573z"/><metadata><rdf:RDF><cc:Work><dc:format>image/svg+xml</dc:format><dc:type rdf:resource="http://purl.org/dc/dcmitype/StillImage"/><cc:license rdf:resource="http://creativecommons.org/licenses/publicdomain/"/><dc:publisher><cc:Agent rdf:about="http://openclipart.org/"><dc:title>Openclipart</dc:title></cc:Agent></dc:publisher><dc:title>Hare with pencil</dc:title><dc:date>2012-09-23T15:01:54</dc:date><dc:description>Hare with a pencil</dc:description><dc:source>https://openclipart.org/detail/172476/hare-with-pencil-by-tribla-172476</dc:source><dc:creator><cc:Agent><dc:title>tribla</dc:title></cc:Agent></dc:creator><dc:subject><rdf:Bag><rdf:li>fantasy</rdf:li><rdf:li>hare</rdf:li><rdf:li>pencil</rdf:li><rdf:li>rabbit</rdf:li><rdf:li>write</rdf:li><rdf:li>writing</rdf:li></rdf:Bag></dc:subject></cc:Work><cc:License rdf:about="http://creativecommons.org/licenses/publicdomain/"><cc:permits rdf:resource="http://creativecommons.org/ns#Reproduction"/><cc:permits rdf:resource="http://creativecommons.org/ns#Distribution"/><cc:permits rdf:resource="http://creativecommons.org/ns#DerivativeWorks"/></cc:License></rdf:RDF></metadata></svg>